<svg width="886" height="192" viewBox="0 0 886 192" fill="none" xmlns="http://www.w3.org/2000/svg">
<mask id="path-1-inside-1_1162_39" fill="white">
<path fill-rule="evenodd" clip-rule="evenodd" d="M885.341 38.1579V191.443H344.484L259.787 153.686L65.9318 150.706L0 125.798V0H784.336L885.341 38.1579Z"/>
</mask>
<path d="M885.341 191.443H890.341V196.443H885.341V191.443ZM885.341 38.1579L887.108 33.4805L890.341 34.7019V38.1579H885.341ZM344.484 191.443V196.443H343.42L342.448 196.01L344.484 191.443ZM259.787 153.686L259.863 148.687L260.887 148.703L261.822 149.119L259.787 153.686ZM65.9318 150.706L65.8549 155.705L64.9817 155.692L64.1647 155.383L65.9318 150.706ZM0 125.798L-1.76702 130.475L-5 129.254V125.798H0ZM0 0H-5V-5H0V0ZM784.336 0V-5H785.249L786.103 -4.67735L784.336 0ZM880.341 191.443V38.1579H890.341V191.443H880.341ZM344.484 186.443H885.341V196.443H344.484V186.443ZM342.448 196.01L257.751 158.253L261.822 149.119L346.519 186.876L342.448 196.01ZM259.71 158.686L65.8549 155.705L66.0086 145.707L259.863 148.687L259.71 158.686ZM1.76702 121.121L67.6988 146.029L64.1647 155.383L-1.76702 130.475L1.76702 121.121ZM5 0V125.798H-5V0H5ZM784.336 5H0V-5H784.336V5ZM883.574 42.8352L782.569 4.67735L786.103 -4.67735L887.108 33.4805L883.574 42.8352Z" fill="#E7FC00" fill-opacity="0.8" mask="url(#path-1-inside-1_1162_39)"/>
<path fill-rule="evenodd" clip-rule="evenodd" d="M867.542 42.8019V179.744H349.531L268.413 146.014L82.7491 143.351L19.6025 121.099V8.71289H770.806L867.542 42.8019Z" fill="#03FDF9" fill-opacity="0.2"/>
<mask id="path-4-inside-2_1162_39" fill="white">
<path fill-rule="evenodd" clip-rule="evenodd" d="M866.911 42.802V179.744H348.9L267.782 146.014L82.1189 143.351L18.9718 121.099V8.71289H770.175L866.911 42.802Z"/>
</mask>
<path d="M866.911 179.744H876.911V189.744H866.911V179.744ZM866.911 42.802L870.234 33.3704L876.911 35.7231V42.802H866.911ZM348.9 179.744V189.744H346.904L345.061 188.978L348.9 179.744ZM267.782 146.014L267.926 136.015L269.847 136.043L271.622 136.78L267.782 146.014ZM82.1189 143.351L81.9755 153.35L80.339 153.327L78.7953 152.783L82.1189 143.351ZM18.9718 121.099L15.6482 130.53L8.97177 128.178V121.099H18.9718ZM18.9718 8.71289H8.97177V-1.28711H18.9718V8.71289ZM770.175 8.71289V-1.28711H771.885L773.498 -0.718637L770.175 8.71289ZM856.911 179.744V42.802H876.911V179.744H856.911ZM348.9 169.744H866.911V189.744H348.9V169.744ZM345.061 188.978L263.943 155.247L271.622 136.78L352.74 170.511L345.061 188.978ZM267.639 156.013L81.9755 153.35L82.2623 133.352L267.926 136.015L267.639 156.013ZM22.2954 111.667L85.4425 133.92L78.7953 152.783L15.6482 130.53L22.2954 111.667ZM28.9718 8.71289V121.099H8.97177V8.71289H28.9718ZM770.175 18.7129H18.9718V-1.28711H770.175V18.7129ZM863.587 52.2335L766.851 18.1444L773.498 -0.718637L870.234 33.3704L863.587 52.2335Z" fill="#E7FC00" fill-opacity="0.8" mask="url(#path-4-inside-2_1162_39)"/>
<path d="M243.951 162.75H223.661L276.078 186.174H296.189L243.951 162.75Z" fill="#E7FC00" fill-opacity="0.8"/>
<path d="M203.566 162.75H183.275L235.692 186.174H255.803L203.566 162.75Z" fill="#E7FC00" fill-opacity="0.8"/>
<path d="M163.18 162.75H142.89L195.307 186.174H215.418L163.18 162.75Z" fill="#E7FC00" fill-opacity="0.8"/>
<path d="M122.795 162.75H102.504L154.921 186.174H175.032L122.795 162.75Z" fill="#E7FC00" fill-opacity="0.8"/>
</svg>
