<svg width="1080" height="551" viewBox="0 0 1080 551" fill="none" xmlns="http://www.w3.org/2000/svg">
<mask id="path-1-inside-1_369_1710" fill="white">
<path fill-rule="evenodd" clip-rule="evenodd" d="M738.27 96.3751L796.63 22.454L770.437 0.293945H472.745L429.443 42.4925H331.4L301.68 80.1364L320.875 96.3751H738.27Z"/>
</mask>
<path d="M796.63 22.454L798.568 20.1637L800.782 22.0368L798.985 24.3129L796.63 22.454ZM738.27 96.3751L740.624 98.234L739.723 99.3751H738.27V96.3751ZM770.437 0.293945V-2.70605H771.536L772.374 -1.99636L770.437 0.293945ZM472.745 0.293945L470.651 -1.85457L471.525 -2.70605H472.745V0.293945ZM429.443 42.4925L431.537 44.641L430.663 45.4925H429.443V42.4925ZM331.4 42.4925L329.045 40.6335L329.946 39.4925H331.4V42.4925ZM301.68 80.1364L299.743 82.4267L297.529 80.5536L299.326 78.2774L301.68 80.1364ZM320.875 96.3751V99.3751H319.776L318.937 98.6654L320.875 96.3751ZM798.985 24.3129L740.624 98.234L735.915 94.5161L794.275 20.595L798.985 24.3129ZM772.374 -1.99636L798.568 20.1637L794.692 24.7443L768.499 2.58425L772.374 -1.99636ZM472.745 -2.70605H770.437V3.29395H472.745V-2.70605ZM427.349 40.344L470.651 -1.85457L474.839 2.44246L431.537 44.641L427.349 40.344ZM331.4 39.4925H429.443V45.4925H331.4V39.4925ZM299.326 78.2774L329.045 40.6335L333.755 44.3515L304.035 81.9954L299.326 78.2774ZM318.937 98.6654L299.743 82.4267L303.618 77.8461L322.812 94.0848L318.937 98.6654ZM738.27 99.3751H320.875V93.3751H738.27V99.3751Z" fill="#DDFF47" fill-opacity="0.8" mask="url(#path-1-inside-1_369_1710)"/>
<line y1="-1.5" x2="86.5171" y2="-1.5" transform="matrix(-0.626144 0.779707 0.877697 0.479215 855.328 19.7275)" stroke="#DDFF47" stroke-opacity="0.8" stroke-width="3"/>
<line y1="-1.5" x2="144.996" y2="-1.5" transform="matrix(-0.6216 0.783335 0.880083 0.47482 850.968 5.43164)" stroke="#DDFF47" stroke-opacity="0.8" stroke-width="3"/>
<line y1="-1.5" x2="68.3037" y2="-1.5" transform="matrix(0.748909 0.662673 0.792952 -0.609284 253.763 73.749)" stroke="#DDFF47" stroke-opacity="0.8" stroke-width="3"/>
<line y1="-1.5" x2="459.154" y2="-1.5" transform="matrix(-1 0 0 1 761.049 119.188)" stroke="#DDFF47" stroke-opacity="0.8" stroke-width="3"/>
<line y1="-1.5" x2="179.06" y2="-1.5" transform="matrix(-1 0 0 1 1028.09 6.89941)" stroke="#DDFF47" stroke-opacity="0.8" stroke-width="3"/>
<path d="M235.953 67.4469C235.953 71.8075 240.456 75.8547 246.715 75.8547C252.973 75.8547 257.477 71.8075 257.477 67.4469C257.477 63.0863 252.973 59.0391 246.715 59.0391C240.456 59.0391 235.953 63.0863 235.953 67.4469Z" stroke="#DDFF47" stroke-opacity="0.8" stroke-width="3"/>
<path d="M1063.71 31.0862L1076.33 12.8027H1020.41L1007.79 31.0862H1063.71Z" stroke="#DDFF47" stroke-opacity="0.8" stroke-width="3"/>
<path d="M780.812 22.3682L756.243 22.3682L703.832 89.8882H728.401L780.812 22.3682Z" fill="#DDFF47" fill-opacity="0.8"/>
<path d="M747.431 22.3682L730.734 22.3682L677.944 89.8882H694.641L747.431 22.3682Z" fill="#DDFF47" fill-opacity="0.8"/>
<path d="M720.862 22.3682H708.35L655.464 90.6221H667.976L720.862 22.3682Z" fill="#DDFF47" fill-opacity="0.8"/>
<path d="M1011.06 11.3027H983.049L968.463 32.5859H996.476L1011.06 11.3027Z" fill="#DDFF47" fill-opacity="0.8"/>
<path d="M976.3 11.3031H962.293L947.707 32.5862H961.714L976.3 11.3031Z" fill="#DDFF47" fill-opacity="0.8"/>
<path d="M191.849 500.089H21.6178L24.1865 502.291H195.555L191.849 500.089Z" fill="#DDFF47" fill-opacity="0.8"/>
<path d="M108.954 493.483H31.8926L34.4613 495.685H111.889L108.954 493.483Z" fill="#DDFF47" fill-opacity="0.8"/>
<path fill-rule="evenodd" clip-rule="evenodd" d="M202.911 482.496L202.886 482.473L169.502 482.395L183.446 495.605L216.833 495.605L206.784 486.144H365.823L362.352 482.474H202.895L202.911 482.496Z" fill="#DDFF47" fill-opacity="0.8"/>
<path fill-rule="evenodd" clip-rule="evenodd" d="M477.404 531.065L477.367 531.031L427.292 530.913L448.207 550.728L498.287 550.729L483.215 536.537H721.771L716.564 531.033H477.38L477.404 531.065Z" fill="#DDFF47" fill-opacity="0.8"/>
<path d="M160.941 482.086L174.888 495.219L160.941 495.297L146.997 482.086L160.941 482.086Z" fill="#03FDF9" fill-opacity="0.8"/>
<path d="M139.537 482.215L153.483 495.348L139.536 495.426L125.592 482.215L139.537 482.215Z" fill="#03FDF9" fill-opacity="0.6"/>
<path d="M119.718 482.214L133.664 495.346L125.713 495.425L111.769 482.215L119.718 482.214Z" fill="#03FDF9" fill-opacity="0.4"/>
<path d="M320.321 469.265H15.0127L20.1896 477.338H328.394L320.321 469.265Z" fill="#03FDF9" fill-opacity="0.8"/>
<path d="M779.016 383.029V281.382L783.42 284.674V387.8L779.016 383.029Z" fill="#DDFF47" fill-opacity="0.8"/>
<path d="M779.016 474.769V373.122L783.42 376.413V479.539L779.016 474.769Z" fill="#03FDF9" fill-opacity="0.6"/>
<path d="M748.926 343.102V235.146L753.329 238.642V348.169L748.926 343.102Z" fill="#DDFF47" fill-opacity="0.8"/>
<path fill-rule="evenodd" clip-rule="evenodd" d="M795.895 489.66L739.644 550.729L739.557 550.565L739.505 550.619H622.692L625.592 546.738H737.848L791.698 488.277V256.43L795.84 261.474V489.548L795.895 489.66Z" fill="#DDFF47" fill-opacity="0.8"/>
<path d="M37.7637 109.647L136.108 109.647L117.476 90.5657L37.7637 90.5657L37.7637 109.647Z" fill="#DDFF47" fill-opacity="0.8"/>
<path d="M31.8924 209.459V265.817L62.7164 286.52L62.7168 229.84L31.8924 209.459Z" fill="#03FDF9" fill-opacity="0.6"/>
<path d="M31.8926 269.64L31.8926 312.855L62.717 332.756L62.717 290.11L31.8926 269.64Z" fill="#03FDF9" fill-opacity="0.4"/>
<path d="M31.8926 316.61L31.8926 344.199L62.7169 364.315L62.7169 336.727L31.8926 316.61Z" fill="#03FDF9" fill-opacity="0.2"/>
<path d="M501.071 469.265H480.314L513.766 500.089H533.889L501.071 469.265Z" fill="#03FDF9" fill-opacity="0.8"/>
<path d="M759.178 340.35L773.29 355.573L773.154 310.085L759.473 295.327L759.178 340.35Z" fill="#03FDF9" fill-opacity="0.8"/>
<path d="M759.043 374.045L773.155 389.268L773.155 362.926L759.474 348.169L759.043 374.045Z" fill="#03FDF9" fill-opacity="0.6"/>
<path d="M758.376 408.539L772.488 423.762L772.488 397.421L758.808 382.663L758.376 408.539Z" fill="#03FDF9" fill-opacity="0.4"/>
<path opacity="0.6" d="M468.495 469.265H448.022L481.016 500.089H500.863L468.495 469.265Z" fill="#DDFF47" fill-opacity="0.8"/>
<path opacity="0.4" fill-rule="evenodd" clip-rule="evenodd" d="M435.799 469.265H415.03L446.683 498.415L439.231 491.79H317.932L312.695 487.048H301.746L314.421 499.889V500.089H448.501L448.501 500.089H468.635L435.799 469.265Z" fill="#DDFF47" fill-opacity="0.8"/>
<mask id="path-36-inside-2_369_1710" fill="white">
<path fill-rule="evenodd" clip-rule="evenodd" d="M737.183 209.599V254.772L721.037 273.31L721.037 402.479L737.183 424.306V451.651L691.68 502.291H562.512L508.936 451.651H37.764V403.964L70.79 377.172V213.53L37.764 190.775V145.609V109.647H224.912L266.011 145.609H673.193L737.183 209.599Z"/>
</mask>
<path d="M737.183 254.772H742.183V256.644L740.954 258.056L737.183 254.772ZM737.183 209.599L740.719 206.064L742.183 207.528V209.599H737.183ZM721.037 273.31H716.037V271.438L717.267 270.026L721.037 273.31ZM721.037 402.479L717.017 405.452L716.037 404.127V402.479H721.037ZM737.183 424.306L741.203 421.333L742.183 422.658V424.306H737.183ZM737.183 451.651H742.183V453.567L740.902 454.993L737.183 451.651ZM691.68 502.291L695.4 505.633L693.91 507.291H691.68V502.291ZM562.512 502.291V507.291H560.523L559.077 505.925L562.512 502.291ZM508.936 451.651V446.651H510.925L512.371 448.017L508.936 451.651ZM37.764 451.651V456.651H32.764V451.651H37.764ZM37.764 403.964H32.764V401.582L34.614 400.081L37.764 403.964ZM70.79 377.172H75.79V379.554L73.94 381.055L70.79 377.172ZM70.79 213.53L73.6268 209.413L75.79 210.904V213.53H70.79ZM37.764 190.775L34.9271 194.893L32.764 193.402V190.775H37.764ZM37.764 109.647H32.764V104.647H37.764V109.647ZM224.912 109.647V104.647H226.79L228.204 105.885L224.912 109.647ZM266.011 145.609V150.609H264.132L262.718 149.372L266.011 145.609ZM673.193 145.609V140.609H675.264L676.728 142.074L673.193 145.609ZM732.183 254.772V209.599H742.183V254.772H732.183ZM717.267 270.026L733.413 251.488L740.954 258.056L724.807 276.594L717.267 270.026ZM716.037 402.479L716.037 273.31H726.037L726.037 402.479H716.037ZM733.163 427.28L717.017 405.452L725.057 399.505L741.203 421.333L733.163 427.28ZM732.183 451.651V424.306H742.183V451.651H732.183ZM687.961 498.949L733.464 448.309L740.902 454.993L695.4 505.633L687.961 498.949ZM562.512 497.291H691.68V507.291H562.512V497.291ZM512.371 448.017L565.946 498.657L559.077 505.925L505.502 455.285L512.371 448.017ZM37.764 446.651H508.936V456.651H37.764V446.651ZM42.764 403.964V451.651H32.764V403.964H42.764ZM73.94 381.055L40.914 407.847L34.614 400.081L67.64 373.289L73.94 381.055ZM75.79 213.53V377.172H65.79V213.53H75.79ZM40.6008 186.658L73.6268 209.413L67.9531 217.648L34.9271 194.893L40.6008 186.658ZM42.764 145.609V190.775H32.764V145.609H42.764ZM42.764 109.647V145.609H32.764V109.647H42.764ZM224.912 114.647H37.764V104.647H224.912V114.647ZM262.718 149.372L221.619 113.41L228.204 105.885L269.303 141.846L262.718 149.372ZM673.193 150.609H266.011V140.609H673.193V150.609ZM676.728 142.074L740.719 206.064L733.648 213.135L669.657 149.145L676.728 142.074Z" fill="#DDFF47" fill-opacity="0.8" mask="url(#path-36-inside-2_369_1710)"/>
<path fill-rule="evenodd" clip-rule="evenodd" d="M700.854 156.617H735.451L783.419 207.257H783.419V308.537H779.25L748.926 272.62V207.257L748.823 207.257L700.854 156.617Z" fill="#DDFF47" fill-opacity="0.8"/>
<line y1="-2.5" x2="228.981" y2="-2.5" transform="matrix(4.37114e-08 1 1 -4.37114e-08 5.47168 97.1709)" stroke="#DDFF47" stroke-opacity="0.8" stroke-width="5"/>
<line y1="-2.5" x2="39.9629" y2="-2.5" transform="matrix(-0.716229 0.697865 0.697865 0.716229 32.6265 72.2178)" stroke="#DDFF47" stroke-opacity="0.8" stroke-width="5"/>
<line y1="-2.5" x2="39.4542" y2="-2.5" transform="matrix(-1 0 0 1 69.3223 72.9512)" stroke="#DDFF47" stroke-opacity="0.8" stroke-width="5"/>
<line y1="-1.5" x2="157.791" y2="-1.5" transform="matrix(-1 8.74228e-08 8.74228e-08 1 195.555 81.0244)" stroke="#DDFF47" stroke-opacity="0.8" stroke-width="3"/>
<line y1="-1.5" x2="157.791" y2="-1.5" transform="matrix(-1 8.74228e-08 8.74228e-08 1 213.169 72.9512)" stroke="#DDFF47" stroke-opacity="0.8" stroke-width="3"/>
</svg>
