<svg width="277" height="304" viewBox="0 0 277 304" fill="none" xmlns="http://www.w3.org/2000/svg">
<path fill-rule="evenodd" clip-rule="evenodd" d="M233.009 270.699C176.707 315.504 98.1071 313.924 43.8999 270.699L57.3573 270.699C105.388 303.514 169.996 304.584 219.55 270.699L233.009 270.699ZM9.74883 87.5686C18.5784 69.8615 31.2231 53.7006 47.5515 40.3815C109.116 -9.83687 199.734 -0.638922 249.952 60.9256C256.803 69.3247 262.549 78.2644 267.206 87.5686L276.096 87.5686C270.896 76.4597 264.257 65.8058 256.152 55.8689C203.14 -9.11933 107.483 -18.8288 42.4948 34.1823C24.1654 49.1336 10.2333 67.4773 0.865453 87.5686L9.74883 87.5686Z" fill="#03FDF9" fill-opacity="0.8"/>
</svg>
