<svg width="243" height="240" viewBox="0 0 243 240" fill="none" xmlns="http://www.w3.org/2000/svg">
<path fill-rule="evenodd" clip-rule="evenodd" d="M238.805 90.5792C252.102 140.725 231.976 195.736 185.64 224.587C175.324 231.011 164.418 235.696 153.264 238.723L161.115 225.128C167.71 222.62 174.16 219.441 180.376 215.571C219.42 191.259 238.069 146.59 231.136 103.861L238.805 90.5792ZM67.8701 25.0504C102.406 5.70074 143.312 6.83542 175.927 25.0451L194.932 25.0442C156.026 -4.50843 101.372 -8.68056 57.4295 18.6808C54.2157 20.6819 51.128 22.8089 48.1687 25.0514L67.8701 25.0504ZM83.7333 225.513C61.386 217.323 41.5026 201.894 27.9474 180.125C12.9923 156.107 8.36196 128.582 12.8495 102.739L4.7892 88.7782C-4.11426 120.449 -0.177824 155.612 18.5816 185.739C35.8045 213.399 62.3489 231.72 91.6157 239.166L83.7333 225.513Z" fill="#03FDF9" fill-opacity="0.8"/>
</svg>
