<svg width="237" height="21" viewBox="0 0 237 21" fill="none" xmlns="http://www.w3.org/2000/svg">
<mask id="path-1-inside-1_1096_782" fill="white">
<path fill-rule="evenodd" clip-rule="evenodd" d="M196.622 1.12087L196.652 1.08653L236.742 0.96875L219.997 20.7627L179.903 20.7634L191.97 6.58671H0.982513L5.15156 1.08835H196.641L196.622 1.12087Z"/>
</mask>
<path fill-rule="evenodd" clip-rule="evenodd" d="M196.622 1.12087L196.652 1.08653L236.742 0.96875L219.997 20.7627L179.903 20.7634L191.97 6.58671H0.982513L5.15156 1.08835H196.641L196.622 1.12087Z" fill="#03FDF9"/>
<path d="M196.652 1.08653L196.649 0.086531L196.188 0.0878829L195.89 0.438262L196.652 1.08653ZM196.622 1.12087L195.76 0.61395L197.384 1.76913L196.622 1.12087ZM236.742 0.96875L237.506 1.61461L238.903 -0.0376034L236.739 -0.0312457L236.742 0.96875ZM219.997 20.7627L219.997 21.7627L220.461 21.7627L220.76 21.4085L219.997 20.7627ZM179.903 20.7634L179.142 20.1152L177.739 21.7634L179.903 21.7634L179.903 20.7634ZM191.97 6.58671L192.731 7.23488L194.134 5.58671H191.97V6.58671ZM0.982513 6.58671L0.185674 5.98252L-1.03068 7.58671H0.982513V6.58671ZM5.15156 1.08835V0.0883538H4.65484L4.35472 0.484162L5.15156 1.08835ZM196.641 1.08835L197.503 1.59527L198.39 0.0883538H196.641V1.08835ZM195.89 0.438262L195.861 0.472601L197.384 1.76913L197.413 1.73479L195.89 0.438262ZM236.739 -0.0312457L196.649 0.086531L196.654 2.08652L236.745 1.96875L236.739 -0.0312457ZM220.76 21.4085L237.506 1.61461L235.979 0.322887L219.234 20.1168L220.76 21.4085ZM179.903 21.7634L219.997 21.7627L219.997 19.7627L179.903 19.7634L179.903 21.7634ZM191.208 5.93855L179.142 20.1152L180.665 21.4115L192.731 7.23488L191.208 5.93855ZM191.97 5.58671H0.982513V7.58671H191.97V5.58671ZM1.77935 7.1909L5.9484 1.69255L4.35472 0.484162L0.185674 5.98252L1.77935 7.1909ZM5.15156 2.08835H196.641V0.0883538H5.15156V2.08835ZM195.779 0.581438L195.76 0.61395L197.484 1.62778L197.503 1.59527L195.779 0.581438Z" fill="#DDFF47" fill-opacity="0.8" mask="url(#path-1-inside-1_1096_782)"/>
</svg>
