<svg width="201" height="47" viewBox="0 0 201 47" fill="none" xmlns="http://www.w3.org/2000/svg">
<g opacity="0.4">
<mask id="path-1-inside-1_1096_809" fill="white">
<path fill-rule="evenodd" clip-rule="evenodd" d="M39.9487 0.327148H64.8903L35.5172 34.0786H181.271V34.3314L187.784 26.9725H200.932L185.474 46.5129H181.271V46.5134H24.6956H20.1777H0.516571L39.9487 0.327148Z"/>
</mask>
<path fill-rule="evenodd" clip-rule="evenodd" d="M39.9487 0.327148H64.8903L35.5172 34.0786H181.271V34.3314L187.784 26.9725H200.932L185.474 46.5129H181.271V46.5134H24.6956H20.1777H0.516571L39.9487 0.327148Z" fill="#03FDF9"/>
<path d="M64.8903 0.327148L65.6446 0.983632L67.0862 -0.672852L64.8903 -0.672852V0.327148ZM39.9487 0.327148V-0.672852H39.4876L39.1882 -0.32216L39.9487 0.327148ZM35.5172 34.0786L34.7629 33.4221L33.3213 35.0786H35.5172V34.0786ZM181.271 34.0786H182.271V33.0786H181.271V34.0786ZM181.271 34.3314H180.271V36.97L182.019 34.9941L181.271 34.3314ZM187.784 26.9725V25.9725H187.333L187.035 26.3098L187.784 26.9725ZM200.932 26.9725L201.716 27.5929L202.998 25.9725H200.932V26.9725ZM185.474 46.5129V47.5129H185.958L186.258 47.1333L185.474 46.5129ZM181.271 46.5129V45.5129H180.271V46.5129H181.271ZM181.271 46.5134V47.5134H182.271V46.5134H181.271ZM0.516571 46.5134L-0.243954 45.8641L-1.65207 47.5134H0.516571V46.5134ZM64.8903 -0.672852H39.9487V1.32715H64.8903V-0.672852ZM36.2716 34.7351L65.6446 0.983632L64.136 -0.329335L34.7629 33.4221L36.2716 34.7351ZM181.271 33.0786H35.5172V35.0786H181.271V33.0786ZM182.271 34.3314V34.0786H180.271V34.3314H182.271ZM182.019 34.9941L188.533 27.6353L187.035 26.3098L180.522 33.6686L182.019 34.9941ZM187.784 27.9725H200.932V25.9725H187.784V27.9725ZM200.147 26.3521L184.69 45.8925L186.258 47.1333L201.716 27.5929L200.147 26.3521ZM185.474 45.5129H181.271V47.5129H185.474V45.5129ZM182.271 46.5134V46.5129H180.271V46.5134H182.271ZM24.6956 47.5134H181.271V45.5134H24.6956V47.5134ZM20.1777 47.5134H24.6956V45.5134H20.1777V47.5134ZM0.516571 47.5134H20.1777V45.5134H0.516571V47.5134ZM39.1882 -0.32216L-0.243954 45.8641L1.2771 47.1627L40.7092 0.976457L39.1882 -0.32216Z" fill="#DDFF47" fill-opacity="0.8" mask="url(#path-1-inside-1_1096_809)"/>
</g>
</svg>
