<svg width="38" height="116" viewBox="0 0 38 116" fill="none" xmlns="http://www.w3.org/2000/svg">
<mask id="path-1-inside-1_1096_800" fill="white">
<path d="M37.9952 0.0429688L37.9952 84.4879L0.979087 115.509L0.978638 30.5813L37.9952 0.0429688Z"/>
</mask>
<path d="M37.9952 0.0429688L37.9952 84.4879L0.979087 115.509L0.978638 30.5813L37.9952 0.0429688Z" fill="#DDFF47" fill-opacity="0.6"/>
<path d="M37.9952 0.0429688L42.9952 0.0429688L42.9952 -10.5639L34.8133 -3.81391L37.9952 0.0429688ZM37.9952 84.4879L41.2067 88.3202L42.9952 86.8214L42.9952 84.4879L37.9952 84.4879ZM0.979087 115.509L-4.02091 115.509L-4.02086 126.222L4.19062 119.341L0.979087 115.509ZM0.978638 30.5813L-2.20326 26.7244L-4.02137 28.2243L-4.02136 30.5813L0.978638 30.5813ZM32.9952 0.0429687L32.9952 84.4879L42.9952 84.4879L42.9952 0.0429688L32.9952 0.0429687ZM34.7837 80.6557L-2.23244 111.676L4.19062 119.341L41.2067 88.3202L34.7837 80.6557ZM5.97909 115.509L5.97864 30.5813L-4.02136 30.5813L-4.02091 115.509L5.97909 115.509ZM4.16053 34.4382L41.1771 3.89985L34.8133 -3.81391L-2.20326 26.7244L4.16053 34.4382Z" fill="#DDFF47" fill-opacity="0.8" mask="url(#path-1-inside-1_1096_800)"/>
</svg>
