<svg width="100" height="485" viewBox="0 0 100 485" fill="none" xmlns="http://www.w3.org/2000/svg">
<path d="M5.47507 376.115L5.47504 221.2L0.475067 228.236V383.287L5.47507 376.115Z" fill="#03FDF9"/>
<path d="M0.975067 381.696L4.97507 375.958L4.97504 222.767L0.975067 228.395V381.696Z" stroke="#DDFF47" stroke-opacity="0.8"/>
<path d="M5.4931 477.732V338.322L0.493103 345V484.225L5.4931 477.732Z" fill="#DDFF47" fill-opacity="0.6"/>
<path d="M0.993103 482.756L4.9931 477.562V339.824L0.993103 345.166V482.756Z" stroke="#DDFF47" stroke-opacity="0.8"/>
<path d="M41.9183 279.743V118.319L36.9183 123.546V287.319L41.9183 279.743Z" fill="#03FDF9"/>
<path d="M37.4183 285.654L41.4183 279.593V119.565L37.4183 123.747V285.654Z" stroke="#DDFF47" stroke-opacity="0.8"/>
<path d="M58.0803 0.6875H99.627L42.0223 76.5649H0.475555L58.0803 0.6875Z" fill="#E7FC00"/>
<path fill-rule="evenodd" clip-rule="evenodd" d="M41.8983 76.5645H0.475037V228.311L41.8983 171.675V76.5645Z" fill="#E7FC00"/>
</svg>
