<svg width="840" height="603" viewBox="0 0 840 603" fill="none" xmlns="http://www.w3.org/2000/svg">
<path d="M839.514 28.1914L721.514 28.1914L743.87 0.191417L839.514 0.191419L839.514 28.1914Z" fill="#03FDF9"/>
<path d="M839.014 27.6914L722.553 27.6914L744.11 0.691417L839.014 0.69142L839.014 27.6914Z" stroke="#DDFF47" stroke-opacity="0.8"/>
<mask id="path-3-inside-1_1096_839" fill="white">
<path fill-rule="evenodd" clip-rule="evenodd" d="M0.0213318 164.252V231.937L19.4109 259.714L19.4109 453.257L0.0213318 485.962V526.935L54.6648 602.812H209.782L274.12 526.935L839.945 526.935V455.482L800.284 415.338V170.142L839.945 136.047V68.3715H839.613V26.4043H614.87L576.429 68.3715H76.8661L0.0213318 164.252Z"/>
</mask>
<path d="M0.0213318 164.252L-3.88023 161.125L-4.97867 162.496V164.252H0.0213318ZM0.0213318 231.937H-4.97867V233.51L-4.07858 234.799L0.0213318 231.937ZM19.4109 259.714L24.4109 259.714L24.4109 258.142L23.5109 256.852L19.4109 259.714ZM19.4109 453.257L23.7119 455.806L24.4109 454.627L24.4109 453.257L19.4109 453.257ZM0.0213318 485.962L-4.27962 483.412L-4.97867 484.591V485.962H0.0213318ZM0.0213318 526.935H-4.97867V528.548L-4.03604 529.857L0.0213318 526.935ZM54.6648 602.812L50.6074 605.734L52.104 607.812H54.6648V602.812ZM209.782 602.812V607.812H212.098L213.595 606.046L209.782 602.812ZM274.12 526.935L274.12 521.935L271.804 521.935L270.306 523.701L274.12 526.935ZM839.945 526.935L839.945 531.935L844.945 531.935V526.935H839.945ZM839.945 455.482H844.945V453.429L843.502 451.968L839.945 455.482ZM800.284 415.338H795.284V417.391L796.727 418.852L800.284 415.338ZM800.284 170.142L797.024 166.351L795.284 167.847V170.142H800.284ZM839.945 136.047L843.204 139.838L844.945 138.342V136.047H839.945ZM839.945 68.3715H844.945V63.3715H839.945V68.3715ZM839.613 68.3715H834.613V73.3715H839.613V68.3715ZM839.613 26.4043H844.613V21.4043H839.613V26.4043ZM614.87 26.4043V21.4043H612.669L611.183 23.0271L614.87 26.4043ZM576.429 68.3715V73.3715H578.63L580.117 71.7487L576.429 68.3715ZM76.8661 68.3715V63.3715H74.4657L72.9645 65.2446L76.8661 68.3715ZM-4.97867 164.252V231.937H5.02133V164.252H-4.97867ZM-4.07858 234.799L15.311 262.576L23.5109 256.852L4.12125 229.076L-4.07858 234.799ZM14.4109 259.714L14.4109 453.257L24.4109 453.257L24.4109 259.714L14.4109 259.714ZM15.11 450.707L-4.27962 483.412L4.32228 488.512L23.7119 455.806L15.11 450.707ZM-4.97867 485.962V526.935H5.02133V485.962H-4.97867ZM-4.03604 529.857L50.6074 605.734L58.7222 599.89L4.0787 524.013L-4.03604 529.857ZM54.6648 607.812H209.782V597.812H54.6648V607.812ZM213.595 606.046L277.934 530.168L270.306 523.701L205.968 599.578L213.595 606.046ZM274.12 531.935L839.945 531.935L839.945 521.935L274.12 521.935L274.12 531.935ZM844.945 526.935V455.482H834.945V526.935H844.945ZM843.502 451.968L803.841 411.824L796.727 418.852L836.388 458.996L843.502 451.968ZM805.284 415.338V170.142H795.284V415.338H805.284ZM803.543 173.934L843.204 139.838L836.685 132.255L797.024 166.351L803.543 173.934ZM844.945 136.047V68.3715H834.945V136.047H844.945ZM839.945 63.3715H839.613V73.3715H839.945V63.3715ZM844.613 68.3715V26.4043H834.613V68.3715H844.613ZM839.613 21.4043H614.87V31.4043H839.613V21.4043ZM611.183 23.0271L572.742 64.9943L580.117 71.7487L618.557 29.7815L611.183 23.0271ZM576.429 63.3715H76.8661V73.3715H576.429V63.3715ZM72.9645 65.2446L-3.88023 161.125L3.92289 167.379L80.7677 71.4985L72.9645 65.2446Z" fill="#DDFF47" fill-opacity="0.8" mask="url(#path-3-inside-1_1096_839)"/>
</svg>
