<svg width="325" height="269" viewBox="0 0 325 269" fill="none" xmlns="http://www.w3.org/2000/svg">
<path opacity="0.7" fill-rule="evenodd" clip-rule="evenodd" d="M226.913 230.061C233.356 225.699 239.557 221.007 245.493 216.01L231.293 201.811C226.659 205.645 221.852 209.276 216.884 212.69L226.913 230.061ZM184.759 230.696C159.658 241.886 131.853 248.105 102.596 248.105C72.75 248.105 44.4158 241.633 18.9204 230.015L8.57074 230.015L0.813329 243.451C31.3022 259.207 65.9099 268.105 102.596 268.105C135.497 268.105 166.726 260.949 194.811 248.107L184.759 230.696ZM271.612 190.053C304.657 151.292 324.604 101.024 324.604 46.097C324.604 30.3462 322.964 14.9785 319.845 0.155337L300.491 5.34116C303.188 18.5051 304.604 32.1356 304.604 46.097C304.604 95.5 286.87 140.761 257.421 175.861L271.612 190.053Z" fill="#03FDF9"/>
</svg>
