<svg width="356" height="361" viewBox="0 0 356 361" fill="none" xmlns="http://www.w3.org/2000/svg">
<path fill-rule="evenodd" clip-rule="evenodd" d="M145.911 360.94L147.472 353.092C68.3129 336.272 8.95605 266.379 8.95605 182.714C8.95605 137.601 26.2136 96.4922 54.5276 65.549L48.1816 60.6348C18.832 92.9378 0.956055 135.742 0.956055 182.714C0.956055 270.301 63.111 343.396 145.911 360.94ZM307.396 47.6161C328.637 66.7356 345.35 90.7345 355.743 117.838L348.26 120.679C338.281 94.6644 322.208 71.6371 301.775 53.3194L307.396 47.6161ZM78.1196 44.0552L64.4959 44.7723C96.6419 17.1701 138.533 0.480469 184.329 0.480469C223.164 0.480469 259.192 12.4825 288.85 32.9636L275.226 33.6807C248.719 17.6888 217.606 8.48047 184.329 8.48047C144.405 8.48047 107.597 21.7345 78.1196 44.0552Z" fill="#03FDF9"/>
</svg>
