<svg width="1303" height="190" viewBox="0 0 1303 190" fill="none" xmlns="http://www.w3.org/2000/svg">
<line y1="-1.5" x2="141.933" y2="-1.5" transform="matrix(0.626144 0.779707 -0.877697 0.479215 284.333 25.0801)" stroke="#03FDF9" stroke-width="3"/>
<line y1="-1.5" x2="237.869" y2="-1.5" transform="matrix(0.6216 0.783335 -0.880083 0.47482 291.485 1.62695)" stroke="#03FDF9" stroke-width="3"/>
<line y1="-1.5" x2="112.054" y2="-1.5" transform="matrix(-0.748909 0.662673 -0.792952 -0.609284 1271.21 113.703)" stroke="#03FDF9" stroke-width="3"/>
<line x1="439" y1="186.748" x2="1192.25" y2="186.748" stroke="#03FDF9" stroke-width="3"/>
<line x1="0.908203" y1="2.53516" x2="294.659" y2="2.53516" stroke="#03FDF9" stroke-width="3"/>
<path d="M1301.39 103.365C1301.39 111.231 1293.37 118.119 1282.78 118.119C1272.18 118.119 1264.16 111.231 1264.16 103.365C1264.16 95.4998 1272.18 88.6113 1282.78 88.6113C1293.37 88.6113 1301.39 95.4998 1301.39 103.365Z" stroke="#03FDF9" stroke-width="3"/>
</svg>
