<svg width="1148" height="645" viewBox="0 0 1148 645" fill="none" xmlns="http://www.w3.org/2000/svg">
<mask id="path-1-inside-1_739_904" fill="white">
<path fill-rule="evenodd" clip-rule="evenodd" d="M0.152344 164.569V238.675L26.6405 269.087L26.6405 480.991L0.152344 516.799V561.659L74.8003 644.735H286.704L374.596 561.659H1147.56V483.428L1093.38 439.475V171.018L1147.56 133.687V59.5917V0.595703H840.544L773.12 59.5917H105.13L0.152344 164.569Z"/>
</mask>
<path d="M0.152344 238.675H-4.84766V240.547L-3.61806 241.959L0.152344 238.675ZM0.152344 164.569L-3.38319 161.033L-4.84766 162.498V164.569H0.152344ZM26.6405 269.087L31.6405 269.087L31.6405 267.215L30.4109 265.803L26.6405 269.087ZM26.6405 480.991L30.6602 483.965L31.6405 482.64L31.6405 480.991L26.6405 480.991ZM0.152344 516.799L-3.86739 513.826L-4.84766 515.151V516.799H0.152344ZM0.152344 561.659H-4.84766V563.576L-3.56681 565.001L0.152344 561.659ZM74.8003 644.735L71.0811 648.077L72.5711 649.735H74.8003V644.735ZM286.704 644.735V649.735H288.693L290.139 648.369L286.704 644.735ZM374.596 561.659V556.659H372.607L371.162 558.026L374.596 561.659ZM1147.56 561.659V566.659H1152.56V561.659H1147.56ZM1147.56 483.428H1152.56V481.046L1150.71 479.545L1147.56 483.428ZM1093.38 439.475H1088.38V441.857L1090.23 443.358L1093.38 439.475ZM1093.38 171.018L1090.55 166.9L1088.38 168.391V171.018H1093.38ZM1147.56 133.687L1150.4 137.805L1152.56 136.314V133.687H1147.56ZM1147.56 0.595703H1152.56V-4.4043H1147.56V0.595703ZM840.544 0.595703V-4.4043H838.665L837.251 -3.16718L840.544 0.595703ZM773.12 59.5917V64.5917H774.998L776.412 63.3545L773.12 59.5917ZM105.13 59.5917V54.5917H103.059L101.594 56.0561L105.13 59.5917ZM5.15234 238.675V164.569H-4.84766V238.675H5.15234ZM30.4109 265.803L3.92275 235.391L-3.61806 241.959L22.8701 272.371L30.4109 265.803ZM31.6405 480.991L31.6405 269.087L21.6405 269.087L21.6405 480.991L31.6405 480.991ZM4.17208 519.773L30.6602 483.965L22.6207 478.018L-3.86739 513.826L4.17208 519.773ZM5.15234 561.659V516.799H-4.84766V561.659H5.15234ZM78.5194 641.393L3.87149 558.318L-3.56681 565.001L71.0811 648.077L78.5194 641.393ZM286.704 639.735H74.8003V649.735H286.704V639.735ZM371.162 558.026L283.27 641.102L290.139 648.369L378.031 565.293L371.162 558.026ZM1147.56 556.659H374.596V566.659H1147.56V556.659ZM1142.56 483.428V561.659H1152.56V483.428H1142.56ZM1090.23 443.358L1144.41 487.311L1150.71 479.545L1096.53 435.592L1090.23 443.358ZM1088.38 171.018V439.475H1098.38V171.018H1088.38ZM1144.73 129.57L1090.55 166.9L1096.22 175.135L1150.4 137.805L1144.73 129.57ZM1142.56 59.5917V133.687H1152.56V59.5917H1142.56ZM1142.56 0.595703V59.5917H1152.56V0.595703H1142.56ZM840.544 5.5957H1147.56V-4.4043H840.544V5.5957ZM776.412 63.3545L843.836 4.35859L837.251 -3.16718L769.827 55.8288L776.412 63.3545ZM105.13 64.5917H773.12V54.5917H105.13V64.5917ZM101.594 56.0561L-3.38319 161.033L3.68788 168.104L108.665 63.1272L101.594 56.0561Z" fill="#03FDF9" mask="url(#path-1-inside-1_739_904)"/>
</svg>
