<svg width="352" height="585" viewBox="0 0 352 585" fill="none" xmlns="http://www.w3.org/2000/svg">
<mask id="path-1-inside-1_1103_1105" fill="white">
<path fill-rule="evenodd" clip-rule="evenodd" d="M325.041 19.7807L305.994 0.733398H0.514282V481.585L103.426 584.496H351.334V131.851L325.041 107.961V19.7807Z"/>
</mask>
<path d="M325.041 19.7807H328.041V18.5381L327.163 17.6594L325.041 19.7807ZM305.994 0.733398L308.115 -1.38792L307.237 -2.2666H305.994V0.733398ZM0.514282 0.733398V-2.2666H-2.48572V0.733398H0.514282ZM0.514282 481.585H-2.48572V482.828L-1.60704 483.706L0.514282 481.585ZM103.426 584.496L101.304 586.618L102.183 587.496H103.426V584.496ZM351.334 584.496V587.496H354.334V584.496H351.334ZM351.334 131.851H354.334V130.523L353.351 129.63L351.334 131.851ZM325.041 107.961H322.041V109.289L323.024 110.182L325.041 107.961ZM327.163 17.6594L308.115 -1.38792L303.873 2.85472L322.92 21.9021L327.163 17.6594ZM305.994 -2.2666H0.514282V3.7334H305.994V-2.2666ZM-2.48572 0.733398V481.585H3.51428V0.733398H-2.48572ZM-1.60704 483.706L101.304 586.618L105.547 582.375L2.6356 479.464L-1.60704 483.706ZM103.426 587.496H351.334V581.496H103.426V587.496ZM354.334 584.496V131.851H348.334V584.496H354.334ZM353.351 129.63L327.059 105.741L323.024 110.182L349.316 134.071L353.351 129.63ZM328.041 107.961V19.7807H322.041V107.961H328.041Z" fill="#03FDF9" mask="url(#path-1-inside-1_1103_1105)"/>
<mask id="path-3-inside-2_1103_1105" fill="white">
<path fill-rule="evenodd" clip-rule="evenodd" d="M325.042 19.7111L305.983 0.713867H294.558V53.849L311.666 69.3435V121.931L347.142 154.061V191.655H351.334V131.409L325.042 107.597V19.7111Z"/>
</mask>
<path fill-rule="evenodd" clip-rule="evenodd" d="M325.042 19.7111L305.983 0.713867H294.558V53.849L311.666 69.3435V121.931L347.142 154.061V191.655H351.334V131.409L325.042 107.597V19.7111Z" fill="#DDFF47"/>
<path d="M305.983 0.713867L306.689 0.00562216L306.396 -0.286133H305.983V0.713867ZM325.042 19.7111H326.042V19.296L325.748 19.0029L325.042 19.7111ZM294.558 0.713867V-0.286133H293.558V0.713867H294.558ZM294.558 53.849H293.558V54.2925L293.886 54.5902L294.558 53.849ZM311.666 69.3435H312.666V68.9L312.337 68.6023L311.666 69.3435ZM311.666 121.931H310.666V122.374L310.994 122.672L311.666 121.931ZM347.142 154.061H348.142V153.618L347.813 153.32L347.142 154.061ZM347.142 191.655H346.142V192.655H347.142V191.655ZM351.334 191.655V192.655H352.334V191.655H351.334ZM351.334 131.409H352.334V130.966L352.005 130.668L351.334 131.409ZM325.042 107.597H324.042V108.04L324.37 108.338L325.042 107.597ZM305.277 1.42211L324.336 20.4194L325.748 19.0029L306.689 0.00562216L305.277 1.42211ZM294.558 1.71387H305.983V-0.286133H294.558V1.71387ZM295.558 53.849V0.713867H293.558V53.849H295.558ZM293.886 54.5902L310.994 70.0847L312.337 68.6023L295.229 53.1078L293.886 54.5902ZM310.666 69.3435V121.931H312.666V69.3435H310.666ZM347.813 153.32L312.337 121.19L310.994 122.672L346.471 154.802L347.813 153.32ZM348.142 191.655V154.061H346.142V191.655H348.142ZM351.334 190.655H347.142V192.655H351.334V190.655ZM350.334 131.409V191.655H352.334V131.409H350.334ZM324.37 108.338L350.662 132.15L352.005 130.668L325.713 106.855L324.37 108.338ZM324.042 19.7111V107.597H326.042V19.7111H324.042Z" fill="#E7FC00" mask="url(#path-3-inside-2_1103_1105)"/>
</svg>
