<svg width="797" height="483" viewBox="0 0 797 483" fill="none" xmlns="http://www.w3.org/2000/svg">
<path d="M192.068 432.156H21.8365L24.4052 434.358H195.774L192.068 432.156Z" fill="#DDFF47" fill-opacity="0.8"/>
<path d="M109.172 425.551H32.1114L34.6801 427.753H112.108L109.172 425.551Z" fill="#DDFF47" fill-opacity="0.8"/>
<path fill-rule="evenodd" clip-rule="evenodd" d="M203.129 414.565L203.105 414.541L169.721 414.463L183.665 427.673L217.052 427.674L207.003 418.212H366.042L362.57 414.543H203.113L203.129 414.565Z" fill="#DDFF47" fill-opacity="0.8"/>
<path fill-rule="evenodd" clip-rule="evenodd" d="M477.623 463.133L477.586 463.098L427.51 462.98L448.426 482.796L498.506 482.796L483.434 468.604H721.99L716.782 463.1H477.599L477.623 463.133Z" fill="#DDFF47" fill-opacity="0.8"/>
<path d="M161.16 414.154L175.106 427.286L161.159 427.364L147.215 414.154L161.16 414.154Z" fill="#03FDF9" fill-opacity="0.8"/>
<path d="M139.755 414.283L153.702 427.415L139.755 427.493L125.811 414.283L139.755 414.283Z" fill="#03FDF9" fill-opacity="0.6"/>
<path d="M119.936 414.282L133.883 427.414L125.932 427.493L111.988 414.283L119.936 414.282Z" fill="#03FDF9" fill-opacity="0.4"/>
<path d="M320.539 401.332H15.2315L20.4083 409.405H328.612L320.539 401.332Z" fill="#03FDF9" fill-opacity="0.8"/>
<path d="M779.235 315.098V213.451L783.638 216.742V319.868L779.235 315.098Z" fill="#DDFF47" fill-opacity="0.8"/>
<path d="M779.235 406.837V305.19L783.638 308.481V411.607L779.235 406.837Z" fill="#03FDF9" fill-opacity="0.6"/>
<path d="M749.145 275.17V167.214L753.548 170.709V280.236L749.145 275.17Z" fill="#DDFF47" fill-opacity="0.8"/>
<path fill-rule="evenodd" clip-rule="evenodd" d="M796.114 421.728L739.862 482.797L739.775 482.634L739.724 482.687H622.911L625.811 478.806H738.067L791.916 420.345V188.498L796.059 193.543V421.616L796.114 421.728Z" fill="#DDFF47" fill-opacity="0.8"/>
<path d="M37.9824 41.7148L136.327 41.7148L117.695 22.6331L37.9824 22.6331L37.9824 41.7148Z" fill="#DDFF47" fill-opacity="0.8"/>
<path d="M32.1112 141.527L32.1112 197.885L62.9352 218.588L62.9355 161.908L32.1112 141.527Z" fill="#03FDF9" fill-opacity="0.6"/>
<path d="M32.1114 201.708L32.1114 244.923L62.9357 264.825L62.9357 222.178L32.1114 201.708Z" fill="#03FDF9" fill-opacity="0.4"/>
<path d="M32.1113 248.679L32.1113 276.267L62.9357 296.383L62.9357 268.795L32.1113 248.679Z" fill="#03FDF9" fill-opacity="0.2"/>
<path d="M501.29 401.332H480.532L513.985 432.156H534.108L501.29 401.332Z" fill="#03FDF9" fill-opacity="0.8"/>
<path d="M759.397 272.417L773.508 287.641L773.372 242.152L759.692 227.394L759.397 272.417Z" fill="#03FDF9" fill-opacity="0.8"/>
<path d="M759.262 306.112L773.373 321.336L773.373 294.994L759.693 280.236L759.262 306.112Z" fill="#03FDF9" fill-opacity="0.6"/>
<path d="M758.595 340.606L772.707 355.83L772.707 329.488L759.027 314.73L758.595 340.606Z" fill="#03FDF9" fill-opacity="0.4"/>
<path opacity="0.6" d="M468.713 401.332H448.24L481.234 432.156H501.082L468.713 401.332Z" fill="#DDFF47" fill-opacity="0.8"/>
<path opacity="0.4" fill-rule="evenodd" clip-rule="evenodd" d="M436.018 401.332H415.249L446.902 430.483L439.45 423.857H318.15L312.913 419.115H301.965L314.64 431.957V432.156H448.72L448.72 432.156H468.854L436.018 401.332Z" fill="#DDFF47" fill-opacity="0.8"/>
<mask id="path-23-inside-1_1120_766" fill="white">
<path fill-rule="evenodd" clip-rule="evenodd" d="M737.402 141.667V186.839L721.256 205.377L721.256 334.546L737.402 356.373V383.718L691.899 434.358H562.731L509.155 383.718H37.9827V336.031L71.0088 309.239V145.598L37.9827 122.843V77.6766V41.7148H225.131L266.23 77.6766H673.412L737.402 141.667Z"/>
</mask>
<path d="M737.402 186.839H742.402V188.712L741.172 190.123L737.402 186.839ZM737.402 141.667L740.937 138.131L742.402 139.596V141.667H737.402ZM721.256 205.377L716.256 205.377L716.256 203.505L717.485 202.094L721.256 205.377ZM721.256 334.546L717.236 337.52L716.256 336.194L716.256 334.546L721.256 334.546ZM737.402 356.373L741.422 353.4L742.402 354.725V356.373H737.402ZM737.402 383.718H742.402V385.635L741.121 387.06L737.402 383.718ZM691.899 434.358L695.618 437.7L694.128 439.358H691.899V434.358ZM562.731 434.358V439.358H560.741L559.296 437.992L562.731 434.358ZM509.155 383.718V378.718H511.144L512.589 380.085L509.155 383.718ZM37.9827 383.718V388.718H32.9827V383.718H37.9827ZM37.9827 336.031H32.9827V333.649L34.8327 332.149L37.9827 336.031ZM71.0088 309.239H76.0088V311.621L74.1588 313.122L71.0088 309.239ZM71.0088 145.598L73.8456 141.48L76.0088 142.971V145.598H71.0088ZM37.9827 122.843L35.1459 126.96L32.9827 125.47V122.843H37.9827ZM37.9827 41.7148H32.9827V36.7148H37.9827V41.7148ZM225.131 41.7148V36.7148H227.009L228.423 37.952L225.131 41.7148ZM266.23 77.6766V82.6766H264.351L262.937 81.4395L266.23 77.6766ZM673.412 77.6766V72.6766H675.483L676.947 74.141L673.412 77.6766ZM732.402 186.839V141.667H742.402V186.839H732.402ZM717.485 202.094L733.631 183.555L741.172 190.123L725.026 208.661L717.485 202.094ZM716.256 334.546L716.256 205.377L726.256 205.377L726.256 334.546L716.256 334.546ZM733.382 359.347L717.236 337.52L725.276 331.573L741.422 353.4L733.382 359.347ZM732.402 383.718V356.373H742.402V383.718H732.402ZM688.18 431.016L733.683 380.376L741.121 387.06L695.618 437.7L688.18 431.016ZM562.731 429.358H691.899V439.358H562.731V429.358ZM512.589 380.085L566.165 430.725L559.296 437.992L505.72 387.352L512.589 380.085ZM37.9827 378.718H509.155V388.718H37.9827V378.718ZM42.9827 336.031V383.718H32.9827V336.031H42.9827ZM74.1588 313.122L41.1328 339.914L34.8327 332.149L67.8588 305.356L74.1588 313.122ZM76.0088 145.598V309.239H66.0088V145.598H76.0088ZM40.8196 118.725L73.8456 141.48L68.1719 149.715L35.1459 126.96L40.8196 118.725ZM42.9827 77.6766V122.843H32.9827V77.6766H42.9827ZM42.9827 41.7148V77.6766H32.9827V41.7148H42.9827ZM225.131 46.7148H37.9827V36.7148H225.131V46.7148ZM262.937 81.4395L221.838 45.4777L228.423 37.952L269.522 73.9137L262.937 81.4395ZM673.412 82.6766H266.23V72.6766H673.412V82.6766ZM676.947 74.141L740.937 138.131L733.866 145.202L669.876 81.2121L676.947 74.141Z" fill="#DDFF47" fill-opacity="0.8" mask="url(#path-23-inside-1_1120_766)"/>
<path fill-rule="evenodd" clip-rule="evenodd" d="M701.073 88.6855H735.67L783.638 139.326H783.638V240.606H779.469L749.144 204.688V139.326L749.041 139.326L701.073 88.6855Z" fill="#DDFF47" fill-opacity="0.8"/>
<line y1="-2.5" x2="228.981" y2="-2.5" transform="matrix(4.37114e-08 1 1 -4.37114e-08 5.69043 29.2383)" stroke="#DDFF47" stroke-opacity="0.8" stroke-width="5"/>
<line y1="-2.5" x2="39.9629" y2="-2.5" transform="matrix(-0.716229 0.697865 0.697865 0.716229 32.8452 4.28516)" stroke="#DDFF47" stroke-opacity="0.8" stroke-width="5"/>
<line y1="-2.5" x2="39.4542" y2="-2.5" transform="matrix(-1 0 0 1 69.541 5.01953)" stroke="#DDFF47" stroke-opacity="0.8" stroke-width="5"/>
<line y1="-1.5" x2="157.791" y2="-1.5" transform="matrix(-1 8.74228e-08 8.74228e-08 1 195.774 13.0918)" stroke="#DDFF47" stroke-opacity="0.8" stroke-width="3"/>
<line y1="-1.5" x2="157.791" y2="-1.5" transform="matrix(-1 8.74228e-08 8.74228e-08 1 213.388 5.01953)" stroke="#DDFF47" stroke-opacity="0.8" stroke-width="3"/>
</svg>
