<svg width="96" height="51" viewBox="0 0 96 51" fill="none" xmlns="http://www.w3.org/2000/svg">
<path d="M18.804 32.5798C14.6384 28.4142 7.88463 28.4142 3.71903 32.5798C-0.446559 36.7454 -0.44656 43.4992 3.71903 47.6648C7.88462 51.8303 14.6384 51.8303 18.804 47.6648C22.9696 43.4992 22.9696 36.7454 18.804 32.5798ZM47.5672 0.98813L9.84729 38.7081L12.6757 41.5365L50.3957 3.81656L47.5672 0.98813Z" fill="#E7FC00"/>
<path d="M18.804 32.5798C14.6384 28.4142 7.88463 28.4142 3.71903 32.5798C-0.446559 36.7454 -0.44656 43.4992 3.71903 47.6648C7.88462 51.8303 14.6384 51.8303 18.804 47.6648C22.9696 43.4992 22.9696 36.7454 18.804 32.5798ZM47.5672 0.98813L9.84729 38.7081L12.6757 41.5365L50.3957 3.81656L47.5672 0.98813Z" fill="black" fill-opacity="0.2"/>
<path d="M92.3621 47.5803C96.4817 43.3692 96.4076 36.6159 92.1965 32.4963C87.9854 28.3767 81.2321 28.4508 77.1125 32.6619C72.9929 36.873 73.067 43.6263 77.2781 47.7459C81.4892 51.8655 88.2425 51.7914 92.3621 47.5803ZM86.1359 38.6914L47.5787 0.971714L44.7815 3.83102L83.3387 41.5507L86.1359 38.6914Z" fill="#E7FC00"/>
<path d="M92.3621 47.5803C96.4817 43.3692 96.4076 36.6159 92.1965 32.4963C87.9854 28.3767 81.2321 28.4508 77.1125 32.6619C72.9929 36.873 73.067 43.6263 77.2781 47.7459C81.4892 51.8655 88.2425 51.7914 92.3621 47.5803ZM86.1359 38.6914L47.5787 0.971714L44.7815 3.83102L83.3387 41.5507L86.1359 38.6914Z" fill="black" fill-opacity="0.2"/>
</svg>
