<svg width="112" height="29" viewBox="0 0 112 29" fill="none" xmlns="http://www.w3.org/2000/svg">
<path d="M0.0644531 3.59766C0.0644531 2.72266 0.361328 1.98828 0.955078 1.39453C1.58008 0.769531 2.33008 0.457031 3.20508 0.457031H30.4863C31.3613 0.457031 32.1113 0.753906 32.7363 1.34766C33.3301 1.97266 33.627 2.72266 33.627 3.59766C33.627 4.47266 33.3145 5.22266 32.6895 5.84766C32.0957 6.44141 31.3613 6.73828 30.4863 6.73828H20.0332V25.7227C19.8457 27.5977 18.8145 28.6133 16.9395 28.7695C16.0645 28.7695 15.2988 28.4883 14.6426 27.9258C14.0176 27.332 13.7051 26.5977 13.7051 25.7227V6.73828H3.20508C2.33008 6.73828 1.5957 6.42578 1.00195 5.80078C0.376953 5.20703 0.0644531 4.47266 0.0644531 3.59766ZM63.7207 0.457031C65.3145 0.488281 66.7363 0.988281 67.9863 1.95703C69.2363 2.92578 70.2363 4.08203 70.9863 5.42578C71.7676 6.76953 72.3457 8.19141 72.7207 9.69141C73.0957 11.1914 73.2832 12.7227 73.2832 14.2852C73.2832 16.3477 72.9551 18.3789 72.2988 20.3789C71.6738 22.3477 70.627 24.0977 69.1582 25.6289C67.7207 27.1602 65.9082 27.9883 63.7207 28.1133H47.3613C45.1738 28.0195 43.3457 27.207 41.877 25.6758C40.4082 24.1445 39.3613 22.3789 38.7363 20.3789C38.1426 18.3789 37.8457 16.3477 37.8457 14.2852C37.8457 12.2227 38.1582 10.207 38.7832 8.23828C39.4082 6.23828 40.4395 4.47266 41.877 2.94141C43.3457 1.37891 45.1738 0.550781 47.3613 0.457031H48.252H62.8301H63.7207ZM62.127 21.832C63.3145 21.7695 64.2988 21.332 65.0801 20.5195C65.8926 19.6758 66.4707 18.707 66.8145 17.6133C67.1582 16.5195 67.3301 15.4102 67.3301 14.2852C67.3301 13.1602 67.1426 12.0664 66.7676 11.0039C66.4238 9.91016 65.8613 8.94141 65.0801 8.09766C64.2988 7.25391 63.3145 6.80078 62.127 6.73828H48.8145C47.627 6.80078 46.6426 7.25391 45.8613 8.09766C45.0801 8.94141 44.502 9.91016 44.127 11.0039C43.7832 12.0664 43.6113 13.1602 43.6113 14.2852C43.6113 15.4102 43.7832 16.5195 44.127 17.6133C44.4707 18.707 45.0332 19.6758 45.8145 20.5195C46.627 21.332 47.627 21.7695 48.8145 21.832H62.127ZM84.7207 25.6289C84.5332 27.5039 83.502 28.5195 81.627 28.6758C80.752 28.6758 79.9863 28.3945 79.3301 27.832C78.7051 27.2383 78.3926 26.5039 78.3926 25.6289V3.50391C78.4238 2.62891 78.752 1.91016 79.377 1.34766C80.002 0.753906 80.752 0.457031 81.627 0.457031H101.314C104.064 0.550781 106.143 1.16016 107.549 2.28516C108.955 3.37891 109.971 4.62891 110.596 6.03516C111.221 7.44141 111.533 8.86328 111.533 10.3008C111.533 11.8008 111.221 13.2539 110.596 14.6602C110.002 16.0664 108.986 17.332 107.549 18.457C106.143 19.5508 104.346 20.082 102.158 20.0508H90.3457C89.4707 20.0508 88.7363 19.7383 88.1426 19.1133C87.5176 18.5195 87.2051 17.7852 87.2051 16.9102C87.2051 16.0352 87.502 15.3008 88.0957 14.707C88.7207 14.082 89.4707 13.7695 90.3457 13.7695H102.439C103.033 13.7695 103.518 13.582 103.893 13.207C104.299 12.8008 104.596 12.3477 104.783 11.8477C104.971 11.3164 105.064 10.7852 105.064 10.2539C105.064 9.75391 104.971 9.25391 104.783 8.75391C104.596 8.22266 104.299 7.76953 103.893 7.39453C103.518 6.98828 103.033 6.76953 102.439 6.73828H85.9395C85.127 6.76953 84.7207 7.17578 84.7207 7.95703V25.6289Z" fill="black"/>
</svg>
