<svg width="139" height="139" viewBox="0 0 139 139" fill="none" xmlns="http://www.w3.org/2000/svg">
<path d="M99.4851 25.0452C103.651 29.2108 110.404 29.2108 114.57 25.0452C118.736 20.8796 118.736 14.1258 114.57 9.96024C110.404 5.79465 103.651 5.79465 99.4851 9.96024C95.3195 14.1258 95.3195 20.8796 99.4851 25.0452ZM70.7218 56.6369L108.442 18.9169L105.613 16.0885L67.8934 53.8084L70.7218 56.6369Z" fill="#E7FC00"/>
<path d="M26.0093 9.96143C21.8437 14.127 21.8437 20.8808 26.0093 25.0464C30.1749 29.212 36.9286 29.212 41.0942 25.0464C45.2598 20.8808 45.2598 14.127 41.0942 9.96143C36.9286 5.79584 30.1749 5.79584 26.0093 9.96143ZM32.1375 18.9181L70.3001 57.0807L73.1286 54.2523L34.966 16.0897L32.1375 18.9181Z" fill="#E7FC00"/>
<path d="M26.0093 9.96143C21.8437 14.127 21.8437 20.8808 26.0093 25.0464C30.1749 29.212 36.9286 29.212 41.0942 25.0464C45.2598 20.8808 45.2598 14.127 41.0942 9.96143C36.9286 5.79584 30.1749 5.79584 26.0093 9.96143ZM32.1375 18.9181L70.3001 57.0807L73.1286 54.2523L34.966 16.0897L32.1375 18.9181Z" fill="black" fill-opacity="0.2"/>
<path d="M69.3076 92.9082L107.028 55.1883" stroke="#E7FC00" stroke-width="4"/>
<path d="M33.5518 55.1875L70.2266 91.8623" stroke="#B9CA00" stroke-width="4"/>
<line y1="-2" x2="72.1699" y2="-2" transform="matrix(0 1 1 0 72.1094 53.959)" stroke="#B9CA00" stroke-width="4"/>
<line y1="-2" x2="66.1641" y2="-2" transform="matrix(0 1 1 0 35.9521 26.7793)" stroke="#B9CA00" stroke-width="4"/>
<path fill-rule="evenodd" clip-rule="evenodd" d="M72.1095 129.008L70.5298 130.623L31.9727 92.9033L34.7699 90.044L72.1095 126.573V129.008Z" fill="#B9CA00"/>
<path d="M69.3076 124.621H72.1094V132.139L70.0361 130.145L69.3076 124.621Z" fill="#B9CA00"/>
</svg>
