<svg width="1026" height="109" viewBox="0 0 1026 109" fill="none" xmlns="http://www.w3.org/2000/svg">
<mask id="path-1-inside-1_362_687" fill="white">
<path fill-rule="evenodd" clip-rule="evenodd" d="M120.977 108.224L-0.000244141 24.9608L54.2968 0H671.393L761.155 47.5318H964.393L1026 89.9331L986.212 108.224H120.977Z"/>
</mask>
<path d="M-0.000244141 24.9608L-1.2533 22.235L-6.04895 24.4396L-1.7011 27.432L-0.000244141 24.9608ZM120.977 108.224L119.276 110.695L120.044 111.224H120.977V108.224ZM54.2968 0V-3H53.6403L53.0438 -2.72577L54.2968 0ZM671.393 0L672.797 -2.65123L672.138 -3H671.393V0ZM761.155 47.5318L759.752 50.183L760.41 50.5318H761.155V47.5318ZM964.393 47.5318L966.094 45.0606L965.326 44.5318H964.393V47.5318ZM1026 89.9331L1027.25 92.6589L1032.05 90.4543L1027.7 87.4619L1026 89.9331ZM986.212 108.224V111.224H986.868L987.465 110.95L986.212 108.224ZM-1.7011 27.432L119.276 110.695L122.678 105.753L1.70061 22.4895L-1.7011 27.432ZM53.0438 -2.72577L-1.2533 22.235L1.25281 27.6865L55.5499 2.72577L53.0438 -2.72577ZM671.393 -3H54.2968V3H671.393V-3ZM762.559 44.8806L672.797 -2.65123L669.989 2.65123L759.752 50.183L762.559 44.8806ZM964.393 44.5318H761.155V50.5318H964.393V44.5318ZM1027.7 87.4619L966.094 45.0606L962.692 50.0031L1024.3 92.4044L1027.7 87.4619ZM987.465 110.95L1027.25 92.6589L1024.75 87.2074L984.959 105.498L987.465 110.95ZM120.977 111.224H986.212V105.224H120.977V111.224Z" fill="#03FDF9" mask="url(#path-1-inside-1_362_687)"/>
</svg>
