<svg width="1404" height="503" viewBox="0 0 1404 503" fill="none" xmlns="http://www.w3.org/2000/svg">
<mask id="path-1-inside-1_318_356" fill="white">
<path fill-rule="evenodd" clip-rule="evenodd" d="M0.339844 100.197V502.443H857.846L992.128 403.365L1299.47 395.544L1404.01 330.181V0.0644531H160.478L0.339844 100.197Z"/>
</mask>
<path d="M0.339844 502.443H-4.66016V507.443H0.339844V502.443ZM0.339844 100.197L-2.31103 95.9578L-4.66016 97.4267V100.197H0.339844ZM857.846 502.443V507.443H859.491L860.815 506.467L857.846 502.443ZM992.128 403.365L992.001 398.366L990.427 398.406L989.159 399.341L992.128 403.365ZM1299.47 395.544L1299.6 400.542L1300.97 400.508L1302.13 399.784L1299.47 395.544ZM1404.01 330.181L1406.66 334.42L1409.01 332.951V330.181H1404.01ZM1404.01 0.0644531H1409.01V-4.93555H1404.01V0.0644531ZM160.478 0.0644531V-4.93555H159.043L157.827 -4.17499L160.478 0.0644531ZM5.33984 502.443V100.197H-4.66016V502.443H5.33984ZM857.846 497.443H0.339844V507.443H857.846V497.443ZM860.815 506.467L995.097 407.388L989.159 399.341L854.878 498.42L860.815 506.467ZM992.255 408.363L1299.6 400.542L1299.35 390.546L992.001 398.366L992.255 408.363ZM1401.36 325.941L1296.82 391.305L1302.13 399.784L1406.66 334.42L1401.36 325.941ZM1399.01 0.0644531V330.181H1409.01V0.0644531H1399.01ZM160.478 5.06445H1404.01V-4.93555H160.478V5.06445ZM2.99072 104.437L163.129 4.30389L157.827 -4.17499L-2.31103 95.9578L2.99072 104.437Z" fill="#03FDF9" mask="url(#path-1-inside-1_318_356)"/>
<path fill-rule="evenodd" clip-rule="evenodd" d="M28.5605 112.387V471.747H849.842L978.451 383.232L1272.81 376.245L1372.93 317.85V22.9307H181.933L28.5605 112.387Z" fill="#03FDF9" fill-opacity="0.2"/>
<mask id="path-4-inside-2_318_356" fill="white">
<path fill-rule="evenodd" clip-rule="evenodd" d="M29.5605 112.387V471.747H850.842L979.451 383.232L1273.81 376.245L1373.93 317.85V22.9307H182.933L29.5605 112.387Z"/>
</mask>
<path d="M29.5605 471.747H19.5605V481.747H29.5605V471.747ZM29.5605 112.387L24.5223 103.749L19.5605 106.643V112.387H29.5605ZM850.842 471.747V481.747H853.95L856.511 479.985L850.842 471.747ZM979.451 383.232L979.214 373.234L976.235 373.305L973.781 374.994L979.451 383.232ZM1273.81 376.245L1274.05 386.242L1276.63 386.181L1278.85 384.883L1273.81 376.245ZM1373.93 317.85L1378.97 326.488L1383.93 323.594V317.85H1373.93ZM1373.93 22.9307H1383.93V12.9307H1373.93V22.9307ZM182.933 22.9307V12.9307H180.23L177.895 14.2926L182.933 22.9307ZM39.5605 471.747V112.387H19.5605V471.747H39.5605ZM850.842 461.747H29.5605V481.747H850.842V461.747ZM856.511 479.985L985.12 391.469L973.781 374.994L845.172 463.51L856.511 479.985ZM979.688 393.229L1274.05 386.242L1273.58 366.248L979.214 373.234L979.688 393.229ZM1368.89 309.212L1268.77 367.607L1278.85 384.883L1378.97 326.488L1368.89 309.212ZM1363.93 22.9307V317.85H1383.93V22.9307H1363.93ZM182.933 32.9307H1373.93V12.9307H182.933V32.9307ZM34.5988 121.025L187.971 31.5687L177.895 14.2926L24.5223 103.749L34.5988 121.025Z" fill="#03FDF9" mask="url(#path-4-inside-2_318_356)"/>
<path d="M1017.23 427.149H1049.4L966.299 488.619H934.414L1017.23 427.149Z" fill="#03FDF9"/>
<path d="M1081.26 427.149H1113.43L1030.33 488.619H998.443L1081.26 427.149Z" fill="#03FDF9"/>
<path d="M1145.29 427.149H1177.46L1094.36 488.619H1062.47L1145.29 427.149Z" fill="#03FDF9"/>
<path d="M1209.32 427.149H1241.49L1158.39 488.619H1126.5L1209.32 427.149Z" fill="#03FDF9"/>
</svg>
