<svg width="275" height="304" viewBox="0 0 275 304" fill="none" xmlns="http://www.w3.org/2000/svg">
<path fill-rule="evenodd" clip-rule="evenodd" d="M245.888 263.235C193.219 312.196 114.252 316.835 56.5996 277.153L69.96 276.171C120.668 305.855 185.653 301.871 232.528 264.218L245.888 263.235ZM9.58693 96.9855C16.6075 79.9789 27.0282 64.0454 40.8491 50.2245C97.0277 -5.95409 188.111 -5.95409 244.29 50.2245C252.861 58.7953 260.124 68.1786 266.08 78.1264L274.954 77.4739C268.315 65.6884 259.98 54.6007 249.947 44.5677C190.644 -14.7351 94.495 -14.7351 35.1922 44.5677C19.6024 60.1575 8.11083 78.2938 0.717676 97.6376L9.58693 96.9855Z" fill="#03FDF9" fill-opacity="0.8"/>
</svg>
