<svg width="305" height="203" viewBox="0 0 305 203" fill="none" xmlns="http://www.w3.org/2000/svg">
<path opacity="0.7" fill-rule="evenodd" clip-rule="evenodd" d="M283.761 119.889C284.106 116.211 284.3 112.489 284.336 108.729L304.337 108.729C304.29 114.272 303.947 119.744 303.321 125.13L283.761 119.889ZM270.781 202.653C274.453 198.097 277.867 193.325 281.002 188.358L263.663 178.348C261.445 181.818 259.069 185.178 256.545 188.416L270.781 202.653ZM290.707 44.4441C283.169 27.926 272.756 12.9952 260.109 0.290614L245.967 14.4328C256.155 24.6738 264.671 36.5792 271.072 49.7054L290.707 44.4441ZM299.238 68.2354C300.571 73.2402 301.654 78.3467 302.475 83.5408L282.185 83.5408C281.558 80.1168 280.8 76.7391 279.914 73.4131L299.238 68.2354ZM43.3406 181.436L28.9764 195.8C11.3667 171.234 0.904779 141.196 0.631681 108.729L20.6325 108.729C20.8935 135.666 29.2314 160.67 43.3406 181.436ZM53.1815 20.6724C44.854 30.1967 37.8746 40.9299 32.5409 52.5741L12.9795 47.3327C19.4575 32.3139 28.2899 18.5489 39.0116 6.50249L53.1815 20.6724ZM22.7839 83.5406C23.2212 81.1505 23.723 78.7829 24.2873 76.4396L4.95882 71.2606C3.97366 75.2932 3.14957 79.3889 2.49368 83.5406L22.7839 83.5406Z" fill="#DDFF47" fill-opacity="0.8"/>
</svg>
