<svg width="209" height="442" viewBox="0 0 209 442" fill="none" xmlns="http://www.w3.org/2000/svg">
<mask id="path-1-inside-1_1096_795" fill="white">
<path fill-rule="evenodd" clip-rule="evenodd" d="M0.514206 349.887L68.066 441.391L68.1705 441.146L68.232 441.226H208.511L205.029 435.411H70.2223L5.55495 347.815V0.421968L0.580505 7.98081V349.72L0.514206 349.887Z"/>
</mask>
<path fill-rule="evenodd" clip-rule="evenodd" d="M0.514206 349.887L68.066 441.391L68.1705 441.146L68.232 441.226H208.511L205.029 435.411H70.2223L5.55495 347.815V0.421968L0.580505 7.98081V349.72L0.514206 349.887Z" fill="#03FDF9"/>
<path d="M68.066 441.391L67.2615 441.985L68.2992 443.39L68.9856 441.783L68.066 441.391ZM0.514206 349.887L-0.415436 349.518L-0.61992 350.034L-0.290313 350.481L0.514206 349.887ZM68.1705 441.146L68.9628 440.536L67.9215 439.183L67.2509 440.753L68.1705 441.146ZM68.232 441.226L67.4396 441.836L67.7399 442.226H68.232V441.226ZM208.511 441.226V442.226H210.276L209.369 440.712L208.511 441.226ZM205.029 435.411L205.887 434.897L205.596 434.411H205.029V435.411ZM70.2223 435.411L69.4178 436.005L69.7176 436.411H70.2223V435.411ZM5.55495 347.815H4.55495V348.144L4.75043 348.409L5.55495 347.815ZM5.55495 0.421968H6.55495V-2.91663L4.71961 -0.127766L5.55495 0.421968ZM0.580505 7.98081L-0.254834 7.43107L-0.419495 7.68128V7.98081H0.580505ZM0.580505 349.72L1.51015 350.088L1.58051 349.91V349.72H0.580505ZM68.8705 440.797L1.31872 349.293L-0.290313 350.481L67.2615 441.985L68.8705 440.797ZM67.2509 440.753L67.1464 440.998L68.9856 441.783L69.0901 441.539L67.2509 440.753ZM67.3781 441.756L67.4396 441.836L69.0244 440.616L68.9628 440.536L67.3781 441.756ZM68.232 442.226H208.511V440.226H68.232V442.226ZM209.369 440.712L205.887 434.897L204.171 435.925L207.653 441.74L209.369 440.712ZM205.029 434.411H70.2223V436.411H205.029V434.411ZM4.75043 348.409L69.4178 436.005L71.0268 434.817L6.35947 347.221L4.75043 348.409ZM4.55495 0.421968V347.815H6.55495V0.421968H4.55495ZM1.41585 8.53054L6.39029 0.971702L4.71961 -0.127766L-0.254834 7.43107L1.41585 8.53054ZM1.58051 349.72V7.98081H-0.419495V349.72H1.58051ZM1.44385 350.255L1.51015 350.088L-0.349136 349.351L-0.415436 349.518L1.44385 350.255Z" fill="#DDFF47" fill-opacity="0.8" mask="url(#path-1-inside-1_1096_795)"/>
</svg>
