<svg width="894" height="132" viewBox="0 0 894 132" fill="none" xmlns="http://www.w3.org/2000/svg">
<line y1="-1.5" x2="97.4512" y2="-1.5" transform="matrix(0.626144 0.779707 -0.877697 0.479215 194.664 18.2939)" stroke="#DDFF47" stroke-opacity="0.8" stroke-width="3"/>
<line y1="-1.5" x2="163.321" y2="-1.5" transform="matrix(0.6216 0.783335 -0.880083 0.47482 199.575 2.19141)" stroke="#DDFF47" stroke-opacity="0.8" stroke-width="3"/>
<line y1="-1.5" x2="76.9361" y2="-1.5" transform="matrix(-0.748909 0.662673 -0.792952 -0.609284 872.256 79.1436)" stroke="#DDFF47" stroke-opacity="0.8" stroke-width="3"/>
<line x1="300.859" y1="128.824" x2="818.041" y2="128.824" stroke="#DDFF47" stroke-opacity="0.8" stroke-width="3"/>
<line x1="0.06427" y1="2.34473" x2="201.754" y2="2.34473" stroke="#DDFF47" stroke-opacity="0.8" stroke-width="3"/>
<path d="M892.507 72.0448C892.507 77.0969 887.309 81.7048 880.195 81.7048C873.081 81.7048 867.883 77.0969 867.883 72.0448C867.883 66.9926 873.081 62.3848 880.195 62.3848C887.309 62.3848 892.507 66.9926 892.507 72.0448Z" stroke="#DDFF47" stroke-opacity="0.8" stroke-width="3"/>
</svg>
