<svg width="813" height="158" viewBox="0 0 813 158" fill="none" xmlns="http://www.w3.org/2000/svg">
<mask id="path-1-inside-1_739_855" fill="white">
<path fill-rule="evenodd" clip-rule="evenodd" d="M96.3703 157.822L0.628906 36.5529L43.599 0.199219H531.968L603.006 69.4268H763.848L812.603 131.182L781.115 157.822H96.3703Z"/>
</mask>
<path d="M0.628906 36.5529L-1.30875 34.2626L-3.52274 36.1357L-1.72572 38.4119L0.628906 36.5529ZM96.3703 157.822L94.0157 159.681L94.9166 160.822H96.3703V157.822ZM43.599 0.199219V-2.80078H42.5002L41.6613 -2.09109L43.599 0.199219ZM531.968 0.199219L534.062 -1.9493L533.188 -2.80078H531.968V0.199219ZM603.006 69.4268L600.912 71.5753L601.786 72.4268H603.006V69.4268ZM763.848 69.4268L766.203 67.5678L765.302 66.4268H763.848V69.4268ZM812.603 131.182L814.541 133.472L816.755 131.599L814.958 129.323L812.603 131.182ZM781.115 157.822V160.822H782.214L783.052 160.113L781.115 157.822ZM-1.72572 38.4119L94.0157 159.681L98.725 155.963L2.98353 34.694L-1.72572 38.4119ZM41.6613 -2.09109L-1.30875 34.2626L2.56656 38.8432L45.5366 2.48952L41.6613 -2.09109ZM531.968 -2.80078H43.599V3.19922H531.968V-2.80078ZM605.1 67.2783L534.062 -1.9493L529.875 2.34773L600.912 71.5753L605.1 67.2783ZM763.848 66.4268H603.006V72.4268H763.848V66.4268ZM814.958 129.323L766.203 67.5678L761.493 71.2858L810.249 133.041L814.958 129.323ZM783.052 160.113L814.541 133.472L810.666 128.892L779.177 155.532L783.052 160.113ZM96.3703 160.822H781.115V154.822H96.3703V160.822Z" fill="#03FDF9" mask="url(#path-1-inside-1_739_855)"/>
</svg>
