<svg width="1149" height="676" viewBox="0 0 1149 676" fill="none" xmlns="http://www.w3.org/2000/svg">
<path d="M1148.22 31.3076L986.883 31.3076L1017.45 0.00364869L1148.22 0.00365057L1148.22 31.3076Z" fill="#03FDF9"/>
<mask id="path-2-inside-1_739_937" fill="white">
<path fill-rule="evenodd" clip-rule="evenodd" d="M0.807617 195.281V269.387L27.2957 299.799L27.2958 511.703L0.807617 547.511V592.371L75.4556 675.447H287.359L375.251 592.371H1148.22V514.14L1094.04 470.186V201.73L1148.22 164.399V90.3036V31.3076H841.199L773.775 90.3036H105.785L0.807617 195.281Z"/>
</mask>
<path d="M0.807617 269.387H-4.19238V271.259L-2.96279 272.671L0.807617 269.387ZM0.807617 195.281L-2.72792 191.745L-4.19238 193.21V195.281H0.807617ZM27.2957 299.799L32.2957 299.799L32.2957 297.927L31.0662 296.515L27.2957 299.799ZM27.2958 511.703L31.3155 514.677L32.2958 513.352L32.2958 511.703L27.2958 511.703ZM0.807617 547.511L-3.21212 544.538L-4.19238 545.863V547.511H0.807617ZM0.807617 592.371H-4.19238V594.288L-2.91153 595.713L0.807617 592.371ZM75.4556 675.447L71.7364 678.789L73.2264 680.447H75.4556V675.447ZM287.359 675.447V680.447H289.348L290.794 679.081L287.359 675.447ZM375.251 592.371V587.371H373.262L371.817 588.738L375.251 592.371ZM1148.22 592.371V597.371H1153.22V592.371H1148.22ZM1148.22 514.14H1153.22V511.758L1151.37 510.257L1148.22 514.14ZM1094.04 470.186H1089.04V472.569L1090.89 474.069L1094.04 470.186ZM1094.04 201.73L1091.2 197.612L1089.04 199.103V201.73H1094.04ZM1148.22 164.399L1151.06 168.517L1153.22 167.026V164.399H1148.22ZM1148.22 31.3076H1153.22V26.3076H1148.22V31.3076ZM841.199 31.3076V26.3076H839.32L837.907 27.5447L841.199 31.3076ZM773.775 90.3036V95.3036H775.654L777.068 94.0665L773.775 90.3036ZM105.785 90.3036V85.3036H103.714L102.249 86.768L105.785 90.3036ZM5.80762 269.387V195.281H-4.19238V269.387H5.80762ZM31.0662 296.515L4.57803 266.103L-2.96279 272.671L23.5253 303.083L31.0662 296.515ZM32.2958 511.703L32.2957 299.799L22.2957 299.799L22.2958 511.703L32.2958 511.703ZM4.82735 550.485L31.3155 514.677L23.276 508.73L-3.21212 544.538L4.82735 550.485ZM5.80762 592.371V547.511H-4.19238V592.371H5.80762ZM79.1747 672.105L4.52677 589.029L-2.91153 595.713L71.7364 678.789L79.1747 672.105ZM287.359 670.447H75.4556V680.447H287.359V670.447ZM371.817 588.738L283.925 671.814L290.794 679.081L378.686 596.005L371.817 588.738ZM1148.22 587.371H375.251V597.371H1148.22V587.371ZM1143.22 514.14V592.371H1153.22V514.14H1143.22ZM1090.89 474.069L1145.07 518.023L1151.37 510.257L1097.19 466.304L1090.89 474.069ZM1089.04 201.73V470.186H1099.04V201.73H1089.04ZM1145.38 160.282L1091.2 197.612L1096.88 205.847L1151.06 168.517L1145.38 160.282ZM1143.22 90.3036V164.399H1153.22V90.3036H1143.22ZM1143.22 31.3076V90.3036H1153.22V31.3076H1143.22ZM841.199 36.3076H1148.22V26.3076H841.199V36.3076ZM777.068 94.0665L844.492 35.0705L837.907 27.5447L770.483 86.5407L777.068 94.0665ZM105.785 95.3036H773.775V85.3036H105.785V95.3036ZM102.249 86.768L-2.72792 191.745L4.34315 198.816L109.32 93.8391L102.249 86.768Z" fill="#03FDF9" mask="url(#path-2-inside-1_739_937)"/>
</svg>
