<svg width="812" height="158" viewBox="0 0 812 158" fill="none" xmlns="http://www.w3.org/2000/svg">
<path d="M337.688 98.9657H329.864L330.056 97.6697H337.88L337.688 98.9657ZM337.352 101.174H327.224L327.416 99.9257H337.544L337.352 101.174ZM336.296 107.894H335L335.192 106.598H336.488L336.296 107.894ZM336.968 103.43H323.768L323.96 102.134H337.208L336.968 103.43ZM336.632 105.638H327.8L327.992 104.39H336.824L336.632 105.638ZM327.224 101.174H326.504L326.696 99.9257H327.416L327.224 101.174ZM335 107.894H327.32L327.512 106.598H335.192L335 107.894ZM335.912 110.15H326.984L327.176 108.854H336.152L335.912 110.15ZM323.768 103.43H320.552L320.744 102.134H323.96L323.768 103.43ZM335.576 112.358H326.6L326.792 111.11H335.768L335.576 112.358ZM335.24 114.614H331.304L331.496 113.318H335.432L335.24 114.614ZM327.8 105.638H316.856L317.048 104.39H327.992L327.8 105.638ZM334.856 116.822H331.352L331.544 115.574H335.048L334.856 116.822ZM331.304 114.614H326.264L326.456 113.318H331.496L331.304 114.614ZM328.616 107.894H316.472L316.712 106.598H328.808L328.616 107.894ZM334.52 119.078H329.24L329.432 117.782H334.712L334.52 119.078ZM340.76 125.798H333.32L333.512 124.502H340.952L340.76 125.798ZM331.352 116.822H325.928L326.12 115.574H331.544L331.352 116.822ZM340.424 128.006H333.08L333.272 126.758H340.616L340.424 128.006ZM329.24 119.078H325.544L325.736 117.782H329.432L329.24 119.078ZM334.184 121.286H325.208L325.4 120.038H334.376L334.184 121.286ZM340.04 130.262H329.768L329.96 128.966H340.28L340.04 130.262ZM333.8 123.542H324.824L325.064 122.246H333.992L333.8 123.542ZM333.32 125.798H318.728L318.968 124.502H333.512L333.32 125.798ZM333.08 128.006H318.536L318.728 126.758H333.272L333.08 128.006ZM329.768 130.262H315.944L316.136 128.966H329.96L329.768 130.262ZM318.728 125.798H316.664L316.856 124.502H318.968L318.728 125.798ZM318.536 128.006H316.28L316.472 126.758H318.728L318.536 128.006ZM403.099 101.174H390.331L390.523 99.9257H403.291L403.099 101.174ZM405.355 105.638H394.939L395.131 104.39H405.547L405.355 105.638ZM400.075 98.9657H385.147L385.387 97.6697H400.315L400.075 98.9657ZM405.403 107.894H398.155L398.347 106.598H405.643L405.403 107.894ZM404.587 103.43H386.923L387.115 102.134H404.827L404.587 103.43ZM404.635 110.15H399.883L400.123 108.854H404.875L404.635 110.15ZM398.155 107.894H395.707L395.899 106.598H398.347L398.155 107.894ZM399.883 110.15H394.987L395.179 108.854H400.123L399.883 110.15ZM385.147 98.9657H384.763L384.955 97.6697H385.387L385.147 98.9657ZM403.579 112.358H392.779L392.971 111.11H403.771L403.579 112.358ZM390.331 101.174H381.067L381.259 99.9257H390.523L390.331 101.174ZM401.371 114.614H394.459L394.651 113.318H401.563L401.371 114.614ZM386.923 103.43H378.811L379.051 102.134H387.115L386.923 103.43ZM398.395 116.822H394.507L394.699 115.574H398.587L398.395 116.822ZM394.459 114.614H389.371L389.563 113.318H394.651L394.459 114.614ZM386.347 105.638H376.939L377.179 104.39H386.539L386.347 105.638ZM384.475 107.894H379.483L379.675 106.598H384.667L384.475 107.894ZM394.603 119.078H392.395L392.587 117.782H394.843L394.603 119.078ZM394.507 116.822H386.107L386.299 115.574H394.699L394.507 116.822ZM402.571 125.798H396.475L396.715 124.502H402.763L402.571 125.798ZM402.235 128.006H396.235L396.475 126.758H402.427L402.235 128.006ZM379.483 107.894H375.883L376.123 106.598H379.675L379.483 107.894ZM392.395 119.078H382.315L382.555 117.782H392.587L392.395 119.078ZM390.523 121.286H386.251L386.443 120.038H390.715L390.523 121.286ZM401.467 130.262H392.875L393.067 128.966H401.659L401.467 130.262ZM385.387 123.542H385.243L385.435 122.246H385.579L385.387 123.542ZM386.251 121.286H378.619L378.859 120.038H386.443L386.251 121.286ZM396.475 125.798H377.755L377.947 124.502H396.715L396.475 125.798ZM396.235 128.006H377.563L377.755 126.758H396.475L396.235 128.006ZM385.243 123.542H374.203L374.395 122.246H385.435L385.243 123.542ZM392.875 130.262H374.155L374.395 128.966H393.067L392.875 130.262ZM377.755 125.798H373.003L373.195 124.502H377.947L377.755 125.798ZM377.563 128.006H372.715L372.907 126.758H377.755L377.563 128.006ZM374.155 130.262H372.379L372.571 128.966H374.395L374.155 130.262ZM441.366 126.038H432.39L432.63 124.742H441.558L441.366 126.038ZM441.03 128.294H432.054L432.246 126.998H441.222L441.03 128.294ZM440.646 130.502H431.718L431.91 129.254H440.838L440.646 130.502ZM498.491 98.9657H497.003L497.195 97.6697H498.683L498.491 98.9657ZM503.819 105.638H502.763L502.955 104.39H504.011L503.819 105.638ZM502.955 103.43H498.779L498.971 102.134H503.195L502.955 103.43ZM502.763 105.638H494.843L495.035 104.39H502.955L502.763 105.638ZM497.003 98.9657H485.003L485.195 97.6697H497.195L497.003 98.9657ZM504.539 107.894H495.611L495.803 106.598H504.779L504.539 107.894ZM498.779 103.43H491.771L492.011 102.134H498.971L498.779 103.43ZM501.467 101.174H483.467L483.659 99.9257H501.659L501.467 101.174ZM504.971 110.15H495.563L495.803 108.854H505.163L504.971 110.15ZM504.971 112.358H497.531L497.723 111.11H505.163L504.971 112.358ZM504.587 114.614H494.891L495.083 113.318H504.827L504.587 114.614ZM497.531 112.358H495.227L495.419 111.11H497.723L497.531 112.358ZM490.283 103.43H480.059L480.299 102.134H490.475L490.283 103.43ZM503.819 116.822H494.507L494.747 115.574H504.059L503.819 116.822ZM483.467 101.174H481.307L481.499 99.9257H483.659L483.467 101.174ZM486.587 105.638H484.043L484.283 104.39H486.779L486.587 105.638ZM503.147 119.078H493.835L494.027 117.782H503.339L503.147 119.078ZM502.427 121.286H498.107L498.299 120.038H502.619L502.427 121.286ZM480.059 103.43H479.099L479.291 102.134H480.299L480.059 103.43ZM484.043 105.638H477.227L477.419 104.39H484.283L484.043 105.638ZM500.939 123.542H497.099L497.291 122.246H501.179L500.939 123.542ZM498.107 121.286H493.067L493.259 120.038H498.299L498.107 121.286ZM485.051 107.894H475.739L475.931 106.598H485.243L485.051 107.894ZM497.099 123.542H491.579L491.819 122.246H497.291L497.099 123.542ZM484.331 110.15H475.019L475.259 108.854H484.571L484.331 110.15ZM483.995 112.358H478.859L479.051 111.11H484.187L483.995 112.358ZM499.067 125.798H489.611L489.803 124.502H499.307L499.067 125.798ZM478.859 112.358H474.347L474.539 111.11H479.051L478.859 112.358ZM483.659 114.614H473.915L474.107 113.318H483.851L483.659 114.614ZM496.427 128.006H489.419L489.611 126.758H496.667L496.427 128.006ZM483.275 116.822H473.579L473.771 115.574H483.467L483.275 116.822ZM483.323 121.286H479.435L479.627 120.038H483.515L483.323 121.286ZM482.939 119.078H473.627L473.819 117.782H483.131L482.939 119.078ZM491.291 130.262H486.011L486.203 128.966H491.483L491.291 130.262ZM484.091 123.542H478.427L478.619 122.246H484.283L484.091 123.542ZM489.611 125.798H475.883L476.075 124.502H489.803L489.611 125.798ZM479.435 121.286H473.963L474.155 120.038H479.627L479.435 121.286ZM489.419 128.006H477.419L477.611 126.758H489.611L489.419 128.006ZM486.011 130.262H481.931L482.123 128.966H486.203L486.011 130.262ZM478.427 123.542H474.779L474.971 122.246H478.619L478.427 123.542ZM562.937 101.174H550.169L550.361 99.9257H563.129L562.937 101.174ZM565.193 105.638H554.777L554.969 104.39H565.385L565.193 105.638ZM559.913 98.9657H544.985L545.225 97.6697H560.153L559.913 98.9657ZM565.241 107.894H557.993L558.185 106.598H565.481L565.241 107.894ZM564.425 103.43H546.761L546.953 102.134H564.665L564.425 103.43ZM564.473 110.15H559.721L559.961 108.854H564.713L564.473 110.15ZM557.993 107.894H555.545L555.737 106.598H558.185L557.993 107.894ZM559.721 110.15H554.825L555.017 108.854H559.961L559.721 110.15ZM544.985 98.9657H544.601L544.793 97.6697H545.225L544.985 98.9657ZM563.417 112.358H552.617L552.809 111.11H563.609L563.417 112.358ZM550.169 101.174H540.905L541.097 99.9257H550.361L550.169 101.174ZM561.209 114.614H554.297L554.489 113.318H561.401L561.209 114.614ZM546.761 103.43H538.649L538.889 102.134H546.953L546.761 103.43ZM558.233 116.822H554.345L554.537 115.574H558.425L558.233 116.822ZM554.297 114.614H549.209L549.401 113.318H554.489L554.297 114.614ZM546.185 105.638H536.777L537.017 104.39H546.377L546.185 105.638ZM544.313 107.894H539.321L539.513 106.598H544.505L544.313 107.894ZM554.441 119.078H552.233L552.425 117.782H554.681L554.441 119.078ZM554.345 116.822H545.945L546.137 115.574H554.537L554.345 116.822ZM562.409 125.798H556.313L556.553 124.502H562.601L562.409 125.798ZM562.073 128.006H556.073L556.313 126.758H562.265L562.073 128.006ZM539.321 107.894H535.721L535.961 106.598H539.513L539.321 107.894ZM552.233 119.078H542.153L542.393 117.782H552.425L552.233 119.078ZM550.361 121.286H546.089L546.281 120.038H550.553L550.361 121.286ZM561.305 130.262H552.713L552.905 128.966H561.497L561.305 130.262ZM545.225 123.542H545.081L545.273 122.246H545.417L545.225 123.542ZM546.089 121.286H538.457L538.697 120.038H546.281L546.089 121.286ZM556.313 125.798H537.593L537.785 124.502H556.553L556.313 125.798ZM556.073 128.006H537.401L537.593 126.758H556.313L556.073 128.006ZM545.081 123.542H534.041L534.233 122.246H545.273L545.081 123.542ZM552.713 130.262H533.993L534.233 128.966H552.905L552.713 130.262ZM537.593 125.798H532.841L533.033 124.502H537.785L537.593 125.798ZM537.401 128.006H532.553L532.745 126.758H537.593L537.401 128.006ZM533.993 130.262H532.217L532.409 128.966H534.233L533.993 130.262ZM601.204 126.038H592.228L592.468 124.742H601.396L601.204 126.038ZM600.868 128.294H591.892L592.084 126.998H601.06L600.868 128.294ZM600.484 130.502H591.556L591.748 129.254H600.676L600.484 130.502ZM662.074 101.174H649.306L649.498 99.9257H662.266L662.074 101.174ZM664.33 105.638H653.914L654.106 104.39H664.522L664.33 105.638ZM659.05 98.9657H644.122L644.362 97.6697H659.29L659.05 98.9657ZM664.378 107.894H657.13L657.322 106.598H664.618L664.378 107.894ZM663.562 103.43H645.898L646.09 102.134H663.802L663.562 103.43ZM663.61 110.15H658.858L659.098 108.854H663.85L663.61 110.15ZM657.13 107.894H654.682L654.874 106.598H657.322L657.13 107.894ZM658.858 110.15H653.962L654.154 108.854H659.098L658.858 110.15ZM644.122 98.9657H643.738L643.93 97.6697H644.362L644.122 98.9657ZM662.554 112.358H651.754L651.946 111.11H662.746L662.554 112.358ZM649.306 101.174H640.042L640.234 99.9257H649.498L649.306 101.174ZM660.346 114.614H653.434L653.626 113.318H660.538L660.346 114.614ZM645.898 103.43H637.786L638.026 102.134H646.09L645.898 103.43ZM657.37 116.822H653.482L653.674 115.574H657.562L657.37 116.822ZM653.434 114.614H648.346L648.538 113.318H653.626L653.434 114.614ZM645.322 105.638H635.914L636.154 104.39H645.514L645.322 105.638ZM643.45 107.894H638.458L638.65 106.598H643.642L643.45 107.894ZM653.578 119.078H651.37L651.562 117.782H653.818L653.578 119.078ZM653.482 116.822H645.082L645.274 115.574H653.674L653.482 116.822ZM661.546 125.798H655.45L655.69 124.502H661.738L661.546 125.798ZM661.21 128.006H655.21L655.45 126.758H661.402L661.21 128.006ZM638.458 107.894H634.858L635.098 106.598H638.65L638.458 107.894ZM651.37 119.078H641.29L641.53 117.782H651.562L651.37 119.078ZM649.498 121.286H645.226L645.418 120.038H649.69L649.498 121.286ZM660.442 130.262H651.85L652.042 128.966H660.634L660.442 130.262ZM644.362 123.542H644.218L644.41 122.246H644.554L644.362 123.542ZM645.226 121.286H637.594L637.834 120.038H645.418L645.226 121.286ZM655.45 125.798H636.73L636.922 124.502H655.69L655.45 125.798ZM655.21 128.006H636.538L636.73 126.758H655.45L655.21 128.006ZM644.218 123.542H633.178L633.37 122.246H644.41L644.218 123.542ZM651.85 130.262H633.13L633.37 128.966H652.042L651.85 130.262ZM636.73 125.798H631.978L632.17 124.502H636.922L636.73 125.798ZM636.538 128.006H631.69L631.882 126.758H636.73L636.538 128.006ZM633.13 130.262H631.354L631.546 128.966H633.37L633.13 130.262ZM721.845 101.174H715.797L715.989 99.9257H722.037L721.845 101.174ZM722.181 98.9657H710.613L710.805 97.6697H722.421L722.181 98.9657ZM721.413 103.43H712.341L712.581 102.134H721.653L721.413 103.43ZM721.125 105.638H716.373L716.613 104.39H721.317L721.125 105.638ZM715.797 101.174H708.357L708.597 99.9257H715.989L715.797 101.174ZM716.373 105.638H712.197L712.389 104.39H716.613L716.373 105.638ZM720.789 107.894H711.813L712.005 106.598H720.981L720.789 107.894ZM712.341 103.43H706.533L706.773 102.134H712.581L712.341 103.43ZM720.405 110.15H711.477L711.669 108.854H720.645L720.405 110.15ZM720.021 112.358H711.093L711.333 111.11H720.213L720.021 112.358ZM710.997 105.638H704.325L704.517 104.39H711.189L710.997 105.638ZM724.245 119.078H717.861L718.053 117.782H724.437L724.245 119.078ZM719.733 114.614H710.757L710.949 113.318H719.925L719.733 114.614ZM708.789 107.894H704.901L705.141 106.598H708.981L708.789 107.894ZM719.349 116.822H710.421L710.613 115.574H719.541L719.349 116.822ZM706.965 110.15H706.677L706.869 108.854H707.157L706.965 110.15ZM723.861 121.286H711.765L711.957 120.038H724.053L723.861 121.286ZM704.901 107.894H702.117L702.309 106.598H705.141L704.901 107.894ZM706.677 110.15H699.861L700.053 108.854H706.869L706.677 110.15ZM718.293 123.542H710.709L710.901 122.246H718.485L718.293 123.542ZM717.861 119.078H699.141L699.381 117.782H718.053L717.861 119.078ZM704.709 112.358H697.653L697.845 111.11H704.949L704.709 112.358ZM702.501 114.614H701.205L701.397 113.318H702.693L702.501 114.614ZM717.909 125.798H708.645L708.837 124.502H718.101L717.909 125.798ZM710.709 123.542H708.933L709.125 122.246H710.901L710.709 123.542ZM717.573 128.006H708.213L708.405 126.758H717.813L717.573 128.006ZM701.205 114.614H695.397L695.637 113.318H701.397L701.205 114.614ZM717.237 130.262H707.877L708.069 128.966H717.429L717.237 130.262ZM711.765 121.286H692.997L693.189 120.038H711.957L711.765 121.286ZM700.293 116.822H693.189L693.381 115.574H700.485L700.293 116.822ZM699.141 119.078H692.469L692.709 117.782H699.381L699.141 119.078ZM692.997 121.286H692.133L692.325 120.038H693.189L692.997 121.286Z" fill="#03FDF9"/>
<path d="M232.722 42.435H226.322L226.578 40.771H232.978L232.722 42.435ZM234.066 45.443H224.914L225.17 43.715H234.322L234.066 45.443ZM229.714 39.491H215.634L215.89 37.763H229.97L229.714 39.491ZM215.634 39.491H209.874L210.13 37.763H215.89L215.634 39.491ZM226.322 42.435H205.522L205.778 40.771H226.578L226.322 42.435ZM233.17 54.403H222.802L223.058 52.675H233.49L233.17 54.403ZM229.714 51.395H212.882L213.138 49.731H229.97L229.714 51.395ZM233.874 60.355H223.634L223.89 58.691H234.13L233.874 60.355ZM234.194 57.411H214.29L214.546 55.683H234.45L234.194 57.411ZM215.186 48.451H214.162L214.418 46.723H215.442L215.186 48.451ZM213.138 45.443H202.898L203.154 43.715H213.394L213.138 45.443ZM232.338 63.363H221.458L221.714 61.635H232.594L232.338 63.363ZM214.162 48.451H202.642L202.962 46.723H214.418L214.162 48.451ZM222.802 54.403H204.05L204.37 52.675H223.058L222.802 54.403ZM212.882 51.395H202.386L202.642 49.731H213.138L212.882 51.395ZM214.29 57.411H211.538L211.794 55.683H214.546L214.29 57.411ZM223.89 69.315H218.322L218.578 67.651H224.146L223.89 69.315ZM229.33 66.371H206.162L206.418 64.643H229.586L229.33 66.371ZM218.322 69.315H206.226L206.482 67.651H218.578L218.322 69.315ZM211.282 63.363H199.058L199.314 61.635H211.602L211.282 63.363ZM206.162 66.371H201.234L201.49 64.643H206.418L206.162 66.371ZM270.99 39.491H264.398L264.718 37.763H271.246L270.99 39.491ZM275.47 45.443H271.566L271.886 43.715H275.79L275.47 45.443ZM271.566 45.443H262.67L262.99 43.715H271.886L271.566 45.443ZM275.982 48.451H263.63L263.886 46.723H276.238L275.982 48.451ZM264.398 39.491H256.014L256.27 37.763H264.718L264.398 39.491ZM273.998 42.435H250.126L250.382 40.771H274.254L273.998 42.435ZM275.534 54.403H271.566L271.822 52.675H275.854L275.534 54.403ZM275.47 51.395H263.63L263.886 49.731H275.726L275.47 51.395ZM271.566 54.403H263.63L263.886 52.675H271.822L271.566 54.403ZM274.51 57.411H263.054L263.31 55.683H274.83L274.51 57.411ZM253.39 39.491H243.022L243.278 37.763H253.71L253.39 39.491ZM273.55 60.355H261.71L262.03 58.691H273.806L273.55 60.355ZM254.99 45.443H246.606L246.862 43.715H255.246L254.99 45.443ZM272.142 63.363H266.318L266.638 61.635H272.398L272.142 63.363ZM263.054 57.411H262.67L262.926 55.683H263.31L263.054 57.411ZM250.126 42.435H242.638L242.894 40.771H250.382L250.126 42.435ZM246.606 45.443H242.19L242.446 43.715H246.862L246.606 45.443ZM253.006 48.451H241.614L241.87 46.723H253.262L253.006 48.451ZM266.318 63.363H258.83L259.086 61.635H266.638L266.318 63.363ZM252.046 51.395H241.166L241.422 49.731H252.302L252.046 51.395ZM269.134 66.371H254.926L255.182 64.643H269.39L269.134 66.371ZM251.534 54.403H246.606L246.862 52.675H251.79L251.534 54.403ZM246.606 54.403H240.718L241.038 52.675H246.862L246.606 54.403ZM264.782 69.315H252.366L252.622 67.651H265.038L264.782 69.315ZM251.086 57.411H240.206L240.462 55.683H251.406L251.086 57.411ZM251.086 60.355H239.694L239.95 58.691H251.406L251.086 60.355ZM253.582 63.363H241.358L241.614 61.635H253.902L253.582 63.363ZM254.926 66.371H238.862L239.118 64.643H255.182L254.926 66.371ZM241.358 63.363H239.246L239.502 61.635H241.614L241.358 63.363ZM249.23 69.315H242.126L242.382 67.651H249.486L249.23 69.315ZM242.126 69.315H238.286L238.542 67.651H242.382L242.126 69.315ZM248.59 72.323H237.902L238.158 70.595H248.846L248.59 72.323ZM248.27 75.331H239.502L239.822 73.603H248.526L248.27 75.331ZM247.758 78.275H236.878L237.134 76.611H248.014L247.758 78.275ZM239.502 75.331H237.326L237.646 73.603H239.822L239.502 75.331ZM317.369 45.635H315.961L316.217 43.971H317.625L317.369 45.635ZM315.769 42.691H307.065L307.321 40.963H316.089L315.769 42.691ZM308.793 39.683H305.081L305.401 37.955H309.049L308.793 39.683ZM317.369 48.643H305.977L306.233 46.915H317.625L317.369 48.643ZM305.081 39.683H297.273L297.593 37.955H305.401L305.081 39.683ZM316.857 54.595H313.593L313.849 52.931H317.113L316.857 54.595ZM317.369 51.651H305.465L305.721 49.923H317.625L317.369 51.651ZM315.961 45.635H290.937L291.257 43.971H316.217L315.961 45.635ZM307.065 42.691H288.953L289.209 40.963H307.321L307.065 42.691ZM316.409 57.603H304.441L304.697 55.875H316.665L316.409 57.603ZM316.025 60.611H305.849L306.105 58.883H316.281L316.025 60.611ZM315.449 63.555H308.025L308.281 61.891H315.705L315.449 63.555ZM313.593 54.595H288.633L288.889 52.931H313.849L313.593 54.595ZM305.849 60.611H303.993L304.249 58.883H306.105L305.849 60.611ZM290.937 45.635H285.433L285.689 43.971H291.257L290.937 45.635ZM308.025 63.555H302.585L302.841 61.891H308.281L308.025 63.555ZM294.841 48.643H283.385L283.641 46.915H295.161L294.841 48.643ZM315.065 66.563H299.961L300.281 64.835H315.321L315.065 66.563ZM299.449 57.603H293.433L293.689 55.875H299.705L299.449 57.603ZM314.553 69.571H303.545L303.865 67.843H314.873L314.553 69.571ZM288.633 54.595H287.993L288.249 52.931H288.889L288.633 54.595ZM299.961 66.563H296.633L296.889 64.835H300.281L299.961 66.563ZM293.433 57.603H283.001L283.257 55.875H293.689L293.433 57.603ZM301.049 69.571H300.665L300.985 67.843H301.369L301.049 69.571ZM292.985 60.611H280.889L281.145 58.883H293.241L292.985 60.611ZM292.025 63.555H283.065L283.321 61.891H292.281L292.025 63.555ZM295.993 66.563H280.057L280.377 64.835H296.249L295.993 66.563ZM300.665 69.571H281.081L281.337 67.843H300.985L300.665 69.571ZM280.889 60.611H280.569L280.825 58.883H281.145L280.889 60.611ZM283.065 63.555H280.057L280.377 61.891H283.321L283.065 63.555ZM359.154 45.635H348.914L349.17 43.971H359.41L359.154 45.635ZM360.754 48.643H353.01L353.33 46.915H361.01L360.754 48.643ZM350.642 39.683H340.722L340.978 37.955H350.898L350.642 39.683ZM356.722 42.691H339.89L340.21 40.963H356.978L356.722 42.691ZM360.754 51.651H349.81L350.066 49.923H361.01L360.754 51.651ZM353.01 48.643H349.298L349.554 46.915H353.33L353.01 48.643ZM339.89 42.691H332.786L333.106 40.963H340.21L339.89 42.691ZM348.914 45.635H329.266L329.586 43.971H349.17L348.914 45.635ZM359.346 60.611H348.466L348.722 58.883H359.602L359.346 60.611ZM357.938 63.555H346.034L346.29 61.891H358.194L357.938 63.555ZM337.778 51.651H337.01L337.266 49.923H338.034L337.778 51.651ZM339.762 48.643H328.05L328.306 46.915H340.018L339.762 48.643ZM337.01 51.651H325.362L325.682 49.923H337.266L337.01 51.651ZM328.05 48.643H326.77L327.09 46.915H328.306L328.05 48.643ZM355.954 66.563H332.914L333.234 64.835H356.21L355.954 66.563ZM336.754 54.595H324.466L324.722 52.931H337.074L336.754 54.595ZM336.818 57.603H326.386L326.642 55.875H337.138L336.818 57.603ZM352.434 69.571H333.554L333.81 67.843H352.69L352.434 69.571ZM336.818 60.611H323.954L324.21 58.883H337.138L336.818 60.611ZM326.386 57.603H323.954L324.21 55.875H326.642L326.386 57.603ZM337.842 63.555H324.53L324.786 61.891H338.098L337.842 63.555ZM332.914 66.563H326.066L326.322 64.835H333.234L332.914 66.563ZM333.554 69.571H328.562L328.818 67.843H333.81L333.554 69.571ZM402.69 48.643H392.002L392.258 46.915H402.946L402.69 48.643ZM392.258 39.683H382.85L383.106 37.955H392.514L392.258 39.683ZM403.138 51.651H397.058L397.314 49.923H403.394L403.138 51.651ZM401.154 45.635H383.938L384.194 43.971H401.41L401.154 45.635ZM398.146 42.691H375.298L375.554 40.963H398.402L398.146 42.691ZM397.058 51.651H392.45L392.706 49.923H397.314L397.058 51.651ZM403.266 54.595H381.57L381.826 52.931H403.586L403.266 54.595ZM402.754 57.603H386.434L386.69 55.875H403.01L402.754 57.603ZM383.938 45.635H371.458L371.714 43.971H384.194L383.938 45.635ZM400.386 63.555H390.146L390.402 61.891H400.642L400.386 63.555ZM398.402 66.563H392.962L393.218 64.835H398.722L398.402 66.563ZM380.738 48.643H368.962L369.218 46.915H380.994L380.738 48.643ZM378.754 51.651H372.034L372.354 49.923H379.074L378.754 51.651ZM395.01 69.571H393.602L393.858 67.843H395.266L395.01 69.571ZM381.57 54.595H366.466L366.722 52.931H381.826L381.57 54.595ZM386.434 57.603H365.954L366.21 55.875H386.69L386.434 57.603ZM372.034 51.651H367.362L367.682 49.923H372.354L372.034 51.651ZM377.922 60.611H373.762L374.018 58.883H378.178L377.922 60.611ZM378.754 63.555H376.002L376.322 61.891H379.01L378.754 63.555ZM392.962 66.563H368.002L368.258 64.835H393.218L392.962 66.563ZM393.602 69.571H371.074L371.394 67.843H393.858L393.602 69.571ZM373.762 60.611H366.146L366.402 58.883H374.018L373.762 60.611ZM376.002 63.555H366.53L366.786 61.891H376.322L376.002 63.555ZM441.597 42.435H435.197L435.453 40.771H441.853L441.597 42.435ZM442.941 45.443H433.789L434.045 43.715H443.197L442.941 45.443ZM438.589 39.491H424.509L424.765 37.763H438.845L438.589 39.491ZM424.509 39.491H418.749L419.005 37.763H424.765L424.509 39.491ZM435.197 42.435H414.397L414.653 40.771H435.453L435.197 42.435ZM442.045 54.403H431.677L431.933 52.675H442.365L442.045 54.403ZM438.589 51.395H421.757L422.013 49.731H438.845L438.589 51.395ZM442.749 60.355H432.509L432.765 58.691H443.005L442.749 60.355ZM443.069 57.411H423.165L423.421 55.683H443.325L443.069 57.411ZM424.061 48.451H423.037L423.293 46.723H424.317L424.061 48.451ZM422.013 45.443H411.773L412.029 43.715H422.269L422.013 45.443ZM441.213 63.363H430.333L430.589 61.635H441.469L441.213 63.363ZM423.037 48.451H411.517L411.837 46.723H423.293L423.037 48.451ZM431.677 54.403H412.925L413.245 52.675H431.933L431.677 54.403ZM421.757 51.395H411.261L411.517 49.731H422.013L421.757 51.395ZM423.165 57.411H420.413L420.669 55.683H423.421L423.165 57.411ZM432.765 69.315H427.197L427.453 67.651H433.021L432.765 69.315ZM438.205 66.371H415.037L415.293 64.643H438.461L438.205 66.371ZM427.197 69.315H415.101L415.357 67.651H427.453L427.197 69.315ZM420.157 63.363H407.933L408.189 61.635H420.477L420.157 63.363ZM415.037 66.371H410.109L410.365 64.643H415.293L415.037 66.371ZM483.705 45.635H479.993L480.249 43.971H483.961L483.705 45.635ZM482.169 42.691H470.969L471.289 40.963H482.425L482.169 42.691ZM477.305 39.683H469.369L469.625 37.955H477.625L477.305 39.683ZM464.505 30.723H460.793L461.049 28.995H464.825L464.505 30.723ZM483.897 48.643H471.481L471.737 46.915H484.153L483.897 48.643ZM460.793 30.723H453.433L453.689 28.995H461.049L460.793 30.723ZM483.385 51.651H471.993L472.249 49.923H483.641L483.385 51.651ZM463.993 33.731H452.985L453.241 32.003H464.249L463.993 33.731ZM482.937 54.595H477.625L477.881 52.931H483.193L482.937 54.595ZM470.969 42.691H463.993L464.249 40.963H471.289L470.969 42.691ZM463.609 36.675H452.473L452.793 35.011H463.865L463.609 36.675ZM479.993 45.635H454.969L455.225 43.971H480.249L479.993 45.635ZM477.625 54.595H471.609L471.865 52.931H477.881L477.625 54.595ZM482.425 57.603H471.097L471.417 55.875H482.745L482.425 57.603ZM463.033 39.683H451.897L452.153 37.955H463.289L463.033 39.683ZM481.785 60.611H470.521L470.777 58.883H482.105L481.785 60.611ZM462.649 42.691H451.385L451.641 40.963H462.905L462.649 42.691ZM463.417 48.643H459.129L459.385 46.915H463.673L463.417 48.643ZM481.401 63.555H472.057L472.313 61.891H481.721L481.401 63.555ZM480.953 66.563H469.625L469.881 64.835H481.209L480.953 66.563ZM454.969 45.635H451.065L451.321 43.971H455.225L454.969 45.635ZM472.057 63.555H470.073L470.393 61.891H472.313L472.057 63.555ZM459.129 48.643H450.553L450.809 46.915H459.385L459.129 48.643ZM461.369 51.651H450.105L450.425 49.923H461.625L461.369 51.651ZM480.505 69.571H469.049L469.369 67.843H480.761L480.505 69.571ZM460.857 54.595H452.601L452.921 52.931H461.113L460.857 54.595ZM460.409 57.603H457.465L457.721 55.875H460.729L460.409 57.603ZM452.601 54.595H449.529L449.785 52.931H452.921L452.601 54.595ZM457.465 57.603H449.017L449.273 55.875H457.721L457.465 57.603ZM459.897 60.611H448.633L448.889 58.883H460.153L459.897 60.611ZM459.321 63.555H448.057L448.377 61.891H459.577L459.321 63.555ZM458.873 66.563H447.609L447.865 64.835H459.129L458.873 66.563ZM458.425 69.571H447.225L447.481 67.843H458.745L458.425 69.571ZM504.832 27.523H493.568L493.824 25.795H505.088L504.832 27.523ZM504.384 30.531H492.992L493.248 28.803H504.704L504.384 30.531ZM504 33.475H492.544L492.8 31.811H504.256L504 33.475ZM502.912 39.491H493.76L494.016 37.763H503.168L502.912 39.491ZM502.4 42.691H493.248L493.568 40.963H502.656L502.4 42.691ZM493.696 39.491H491.648L491.968 37.763H493.952L493.696 39.491ZM502.08 45.635H490.624L490.88 43.971H502.336L502.08 45.635ZM493.184 42.691H491.136L491.456 40.963H493.44L493.184 42.691ZM501.504 48.643H490.112L490.432 46.915H501.824L501.504 48.643ZM500.608 54.595H499.84L500.096 52.931H500.864L500.608 54.595ZM501.056 51.651H490.368L490.624 49.923H501.312L501.056 51.651ZM499.84 54.595H489.28L489.536 52.931H500.096L499.84 54.595ZM490.368 51.651H489.664L489.92 49.923H490.624L490.368 51.651ZM500.096 57.603H488.768L489.088 55.875H500.416L500.096 57.603ZM499.584 60.611H492.096L492.352 58.883H499.84L499.584 60.611ZM499.2 63.555H494.272L494.528 61.891H499.456L499.2 63.555ZM492.096 60.611H488.256L488.512 58.883H492.352L492.096 60.611ZM494.272 63.555H487.872L488.128 61.891H494.528L494.272 63.555ZM498.688 66.563H487.296L487.552 64.835H498.944L498.688 66.563ZM498.24 69.571H486.912L487.168 67.843H498.496L498.24 69.571ZM538.49 39.491H531.898L532.218 37.763H538.746L538.49 39.491ZM542.97 45.443H539.066L539.386 43.715H543.29L542.97 45.443ZM539.066 45.443H530.17L530.49 43.715H539.386L539.066 45.443ZM543.482 48.451H531.13L531.386 46.723H543.738L543.482 48.451ZM531.898 39.491H523.514L523.77 37.763H532.218L531.898 39.491ZM541.498 42.435H517.626L517.882 40.771H541.754L541.498 42.435ZM543.034 54.403H539.066L539.322 52.675H543.354L543.034 54.403ZM542.97 51.395H531.13L531.386 49.731H543.226L542.97 51.395ZM539.066 54.403H531.13L531.386 52.675H539.322L539.066 54.403ZM542.01 57.411H530.554L530.81 55.683H542.33L542.01 57.411ZM520.89 39.491H510.522L510.778 37.763H521.21L520.89 39.491ZM541.05 60.355H529.21L529.53 58.691H541.306L541.05 60.355ZM522.49 45.443H514.106L514.362 43.715H522.746L522.49 45.443ZM539.642 63.363H533.818L534.138 61.635H539.898L539.642 63.363ZM530.554 57.411H530.17L530.426 55.683H530.81L530.554 57.411ZM517.626 42.435H510.138L510.394 40.771H517.882L517.626 42.435ZM514.106 45.443H509.69L509.946 43.715H514.362L514.106 45.443ZM520.506 48.451H509.114L509.37 46.723H520.762L520.506 48.451ZM533.818 63.363H526.33L526.586 61.635H534.138L533.818 63.363ZM519.546 51.395H508.666L508.922 49.731H519.802L519.546 51.395ZM536.634 66.371H522.426L522.682 64.643H536.89L536.634 66.371ZM519.034 54.403H514.106L514.362 52.675H519.29L519.034 54.403ZM514.106 54.403H508.218L508.538 52.675H514.362L514.106 54.403ZM532.282 69.315H519.866L520.122 67.651H532.538L532.282 69.315ZM518.586 57.411H507.706L507.962 55.683H518.906L518.586 57.411ZM518.586 60.355H507.194L507.45 58.691H518.906L518.586 60.355ZM521.082 63.363H508.858L509.114 61.635H521.402L521.082 63.363ZM522.426 66.371H506.362L506.618 64.643H522.682L522.426 66.371ZM508.858 63.363H506.746L507.002 61.635H509.114L508.858 63.363ZM516.73 69.315H509.626L509.882 67.651H516.986L516.73 69.315ZM509.626 69.315H505.786L506.042 67.651H509.882L509.626 69.315ZM516.09 72.323H505.402L505.658 70.595H516.346L516.09 72.323ZM515.77 75.331H507.002L507.322 73.603H516.026L515.77 75.331ZM515.258 78.275H504.378L504.634 76.611H515.514L515.258 78.275ZM507.002 75.331H504.826L505.146 73.603H507.322L507.002 75.331Z" fill="#03FDF9"/>
<mask id="path-3-inside-1_1048_776" fill="white">
<path fill-rule="evenodd" clip-rule="evenodd" d="M95.7414 157.686L0 36.4162L42.9701 0.0625H531.339L602.377 69.2901H763.219L811.974 131.045L780.486 157.686H95.7414Z"/>
</mask>
<path d="M0 36.4162L-1.93765 34.1259L-4.15165 35.999L-2.35462 38.2752L0 36.4162ZM95.7414 157.686L93.3868 159.544L94.2876 160.686H95.7414V157.686ZM42.9701 0.0625V-2.9375H41.8713L41.0324 -2.22781L42.9701 0.0625ZM531.339 0.0625L533.433 -2.08602L532.559 -2.9375H531.339V0.0625ZM602.377 69.2901L600.283 71.4386L601.157 72.2901H602.377V69.2901ZM763.219 69.2901L765.574 67.4311L764.673 66.2901H763.219V69.2901ZM811.974 131.045L813.912 133.336L816.126 131.463L814.329 129.186L811.974 131.045ZM780.486 157.686V160.686H781.585L782.424 159.976L780.486 157.686ZM-2.35462 38.2752L93.3868 159.544L98.0961 155.827L2.35462 34.5572L-2.35462 38.2752ZM41.0324 -2.22781L-1.93765 34.1259L1.93765 38.7065L44.9077 2.35281L41.0324 -2.22781ZM531.339 -2.9375H42.9701V3.0625H531.339V-2.9375ZM604.471 67.1416L533.433 -2.08602L529.246 2.21102L600.283 71.4386L604.471 67.1416ZM763.219 66.2901H602.377V72.2901H763.219V66.2901ZM814.329 129.186L765.574 67.4311L760.864 71.1491L809.62 132.904L814.329 129.186ZM782.424 159.976L813.912 133.336L810.037 128.755L778.548 155.395L782.424 159.976ZM95.7414 160.686H780.486V154.686H95.7414V160.686Z" fill="#03FDF9" mask="url(#path-3-inside-1_1048_776)"/>
</svg>
