<svg width="95" height="51" viewBox="0 0 95 51" fill="none" xmlns="http://www.w3.org/2000/svg">
<path d="M18.3059 32.5798C14.1403 28.4142 7.38658 28.4142 3.22099 32.5798C-0.944606 36.7454 -0.944607 43.4992 3.22099 47.6648C7.38658 51.8303 14.1403 51.8303 18.3059 47.6648C22.4715 43.4992 22.4715 36.7454 18.3059 32.5798ZM47.0692 0.98813L9.34925 38.7081L12.1777 41.5365L49.8976 3.81656L47.0692 0.98813Z" fill="black"/>
<path d="M91.8641 47.5803C95.9837 43.3692 95.9095 36.6159 91.6985 32.4963C87.4874 28.3767 80.734 28.4508 76.6144 32.6619C72.4948 36.873 72.569 43.6263 76.78 47.7459C80.9911 51.8655 87.7445 51.7914 91.8641 47.5803ZM85.6379 38.6914L47.0807 0.971714L44.2835 3.83102L82.8407 41.5507L85.6379 38.6914Z" fill="black"/>
</svg>
