<svg width="113" height="29" viewBox="0 0 113 29" fill="none" xmlns="http://www.w3.org/2000/svg">
<path d="M0.5625 3.59766C0.5625 2.72266 0.859375 1.98828 1.45312 1.39453C2.07812 0.769531 2.82812 0.457031 3.70312 0.457031H30.9844C31.8594 0.457031 32.6094 0.753906 33.2344 1.34766C33.8281 1.97266 34.125 2.72266 34.125 3.59766C34.125 4.47266 33.8125 5.22266 33.1875 5.84766C32.5938 6.44141 31.8594 6.73828 30.9844 6.73828H20.5312V25.7227C20.3438 27.5977 19.3125 28.6133 17.4375 28.7695C16.5625 28.7695 15.7969 28.4883 15.1406 27.9258C14.5156 27.332 14.2031 26.5977 14.2031 25.7227V6.73828H3.70312C2.82812 6.73828 2.09375 6.42578 1.5 5.80078C0.875 5.20703 0.5625 4.47266 0.5625 3.59766ZM64.2188 0.457031C65.8125 0.488281 67.2344 0.988281 68.4844 1.95703C69.7344 2.92578 70.7344 4.08203 71.4844 5.42578C72.2656 6.76953 72.8438 8.19141 73.2188 9.69141C73.5938 11.1914 73.7812 12.7227 73.7812 14.2852C73.7812 16.3477 73.4531 18.3789 72.7969 20.3789C72.1719 22.3477 71.125 24.0977 69.6562 25.6289C68.2188 27.1602 66.4062 27.9883 64.2188 28.1133H47.8594C45.6719 28.0195 43.8438 27.207 42.375 25.6758C40.9062 24.1445 39.8594 22.3789 39.2344 20.3789C38.6406 18.3789 38.3438 16.3477 38.3438 14.2852C38.3438 12.2227 38.6562 10.207 39.2812 8.23828C39.9062 6.23828 40.9375 4.47266 42.375 2.94141C43.8438 1.37891 45.6719 0.550781 47.8594 0.457031H48.75H63.3281H64.2188ZM62.625 21.832C63.8125 21.7695 64.7969 21.332 65.5781 20.5195C66.3906 19.6758 66.9688 18.707 67.3125 17.6133C67.6562 16.5195 67.8281 15.4102 67.8281 14.2852C67.8281 13.1602 67.6406 12.0664 67.2656 11.0039C66.9219 9.91016 66.3594 8.94141 65.5781 8.09766C64.7969 7.25391 63.8125 6.80078 62.625 6.73828H49.3125C48.125 6.80078 47.1406 7.25391 46.3594 8.09766C45.5781 8.94141 45 9.91016 44.625 11.0039C44.2812 12.0664 44.1094 13.1602 44.1094 14.2852C44.1094 15.4102 44.2812 16.5195 44.625 17.6133C44.9688 18.707 45.5312 19.6758 46.3125 20.5195C47.125 21.332 48.125 21.7695 49.3125 21.832H62.625ZM85.2188 25.6289C85.0312 27.5039 84 28.5195 82.125 28.6758C81.25 28.6758 80.4844 28.3945 79.8281 27.832C79.2031 27.2383 78.8906 26.5039 78.8906 25.6289V3.50391C78.9219 2.62891 79.25 1.91016 79.875 1.34766C80.5 0.753906 81.25 0.457031 82.125 0.457031H101.812C104.562 0.550781 106.641 1.16016 108.047 2.28516C109.453 3.37891 110.469 4.62891 111.094 6.03516C111.719 7.44141 112.031 8.86328 112.031 10.3008C112.031 11.8008 111.719 13.2539 111.094 14.6602C110.5 16.0664 109.484 17.332 108.047 18.457C106.641 19.5508 104.844 20.082 102.656 20.0508H90.8438C89.9688 20.0508 89.2344 19.7383 88.6406 19.1133C88.0156 18.5195 87.7031 17.7852 87.7031 16.9102C87.7031 16.0352 88 15.3008 88.5938 14.707C89.2188 14.082 89.9688 13.7695 90.8438 13.7695H102.938C103.531 13.7695 104.016 13.582 104.391 13.207C104.797 12.8008 105.094 12.3477 105.281 11.8477C105.469 11.3164 105.562 10.7852 105.562 10.2539C105.562 9.75391 105.469 9.25391 105.281 8.75391C105.094 8.22266 104.797 7.76953 104.391 7.39453C104.016 6.98828 103.531 6.76953 102.938 6.73828H86.4375C85.625 6.76953 85.2188 7.17578 85.2188 7.95703V25.6289Z" fill="#E7FC00"/>
</svg>
