<svg width="1761" height="828" viewBox="0 0 1761 828" fill="none" xmlns="http://www.w3.org/2000/svg">
<mask id="path-1-inside-1_335_285" fill="white">
<path fill-rule="evenodd" clip-rule="evenodd" d="M1086.58 27H1401.39L1420.1 0H1691C1729.66 0 1761 31.3401 1761 70V700.084L1275.62 703.173L1090.09 828H551.303L510.063 786H285.056L243.035 828H0V116.453L142.357 0H1067.51L1086.58 27Z"/>
</mask>
<path d="M1401.39 27V33H1404.53L1406.32 30.4175L1401.39 27ZM1086.58 27L1081.68 30.4608L1083.47 33H1086.58V27ZM1420.1 0V-6H1416.96L1415.17 -3.41747L1420.1 0ZM1761 700.084L1761.04 706.084L1767 706.046V700.084H1761ZM1275.62 703.173L1275.58 697.173L1273.77 697.184L1272.27 698.195L1275.62 703.173ZM1090.09 828V834H1091.92L1093.44 832.978L1090.09 828ZM551.303 828L547.022 832.204L548.786 834H551.303V828ZM510.063 786L514.345 781.796L512.581 780H510.063V786ZM285.056 786V780H282.572L280.814 781.756L285.056 786ZM243.035 828V834H245.52L247.277 832.244L243.035 828ZM0 828H-6V834H0V828ZM0 116.453L-3.79903 111.809L-6 113.61V116.453H0ZM142.357 0V-6H140.215L138.558 -4.64407L142.357 0ZM1067.51 0L1072.41 -3.4608L1070.62 -6H1067.51V0ZM1401.39 21H1086.58V33H1401.39V21ZM1415.17 -3.41747L1396.46 23.5825L1406.32 30.4175L1425.03 3.41747L1415.17 -3.41747ZM1691 -6H1420.1V6H1691V-6ZM1767 70C1767 28.0264 1732.97 -6 1691 -6V6C1726.35 6 1755 34.6538 1755 70H1767ZM1767 700.084V70H1755V700.084H1767ZM1275.66 709.173L1761.04 706.084L1760.96 694.085L1275.58 697.173L1275.66 709.173ZM1093.44 832.978L1278.97 708.151L1272.27 698.195L1086.74 823.022L1093.44 832.978ZM551.303 834H1090.09V822H551.303V834ZM505.782 790.204L547.022 832.204L555.584 823.796L514.345 781.796L505.782 790.204ZM285.056 792H510.063V780H285.056V792ZM247.277 832.244L289.298 790.244L280.814 781.756L238.794 823.756L247.277 832.244ZM0 834H243.035V822H0V834ZM-6 116.453V828H6V116.453H-6ZM138.558 -4.64407L-3.79903 111.809L3.79903 121.097L146.156 4.64407L138.558 -4.64407ZM1067.51 -6H142.357V6H1067.51V-6ZM1091.48 23.5392L1072.41 -3.4608L1062.61 3.4608L1081.68 30.4608L1091.48 23.5392Z" fill="#DDFF47" mask="url(#path-1-inside-1_335_285)"/>
</svg>
