<svg width="745" height="503" viewBox="0 0 745 503" fill="none" xmlns="http://www.w3.org/2000/svg">
<mask id="path-1-inside-1_699_88" fill="white">
<path fill-rule="evenodd" clip-rule="evenodd" d="M719.7 161.616V90.2039L653.985 0.40343H0.0654297V383.547L87.0544 502.42H440.577L476.136 459.56H599.418L645.729 502.42H719.7V412.003L744.609 370.113L744.609 193.65L719.7 161.616Z"/>
</mask>
<path d="M719.7 90.2039H724.7V88.5698L723.735 87.2511L719.7 90.2039ZM719.7 161.616H714.7V163.331L715.753 164.685L719.7 161.616ZM653.985 0.40343L658.02 -2.54931L656.522 -4.59657H653.985V0.40343ZM0.0654297 0.40343V-4.59657H-4.93457V0.40343H0.0654297ZM0.0654297 383.547H-4.93457V385.181L-3.96958 386.499L0.0654297 383.547ZM87.0544 502.42L83.0194 505.372L84.5176 507.42H87.0544V502.42ZM440.577 502.42V507.42H442.925L444.425 505.612L440.577 502.42ZM476.136 459.56V454.56H473.788L472.288 456.368L476.136 459.56ZM599.418 459.56L602.814 455.891L601.376 454.56H599.418V459.56ZM645.729 502.42L642.333 506.089L643.771 507.42H645.729V502.42ZM719.7 502.42V507.42H724.7V502.42H719.7ZM719.7 412.003L715.402 409.448L714.7 410.629V412.003H719.7ZM744.609 370.113L748.906 372.668L749.609 371.487L749.609 370.113L744.609 370.113ZM744.609 193.65L749.609 193.65L749.609 191.935L748.556 190.581L744.609 193.65ZM714.7 90.2039V161.616H724.7V90.2039H714.7ZM649.95 3.35617L715.665 93.1566L723.735 87.2511L658.02 -2.54931L649.95 3.35617ZM0.0654297 5.40343H653.985V-4.59657H0.0654297V5.40343ZM5.06543 383.547V0.40343H-4.93457V383.547H5.06543ZM91.0895 499.467L4.10044 380.594L-3.96958 386.499L83.0194 505.372L91.0895 499.467ZM440.577 497.42H87.0544V507.42H440.577V497.42ZM472.288 456.368L436.729 499.227L444.425 505.612L479.984 462.753L472.288 456.368ZM599.418 454.56H476.136V464.56H599.418V454.56ZM649.125 498.75L602.814 455.891L596.022 463.23L642.333 506.089L649.125 498.75ZM719.7 497.42H645.729V507.42H719.7V497.42ZM714.7 412.003V502.42H724.7V412.003H714.7ZM723.997 414.559L748.906 372.668L740.311 367.557L715.402 409.448L723.997 414.559ZM749.609 370.113L749.609 193.65L739.609 193.65L739.609 370.113L749.609 370.113ZM748.556 190.581L723.647 158.547L715.753 164.685L740.662 196.719L748.556 190.581Z" fill="#DDFF47" mask="url(#path-1-inside-1_699_88)"/>
</svg>
