<svg width="847" height="621" viewBox="0 0 847 621" fill="none" xmlns="http://www.w3.org/2000/svg">
<mask id="path-1-inside-1_738_802" fill="white">
<path fill-rule="evenodd" clip-rule="evenodd" d="M466.096 620.147L428.377 563.187L149.406 563.187L0.253906 381.8V0.707458H695.639L846.254 183.874V620.147H466.096Z"/>
</mask>
<path fill-rule="evenodd" clip-rule="evenodd" d="M466.096 620.147L428.377 563.187L149.406 563.187L0.253906 381.8V0.707458H695.639L846.254 183.874V620.147H466.096Z" fill="#03FDF9" fill-opacity="0.2"/>
<path d="M428.377 563.187L432.546 560.427L431.063 558.187L428.377 558.187L428.377 563.187ZM466.096 620.147L461.927 622.908L463.41 625.147H466.096V620.147ZM149.406 563.187L145.544 566.363L147.044 568.187L149.406 568.187L149.406 563.187ZM0.253906 381.8H-4.74609V383.591L-3.6081 384.975L0.253906 381.8ZM0.253906 0.707458V-4.29254H-4.74609V0.707458H0.253906ZM695.639 0.707458L699.501 -2.46821L698.001 -4.29254H695.639V0.707458ZM846.254 183.874H851.254V182.082L850.116 180.698L846.254 183.874ZM846.254 620.147V625.147H851.254V620.147H846.254ZM424.208 565.948L461.927 622.908L470.264 617.387L432.546 560.427L424.208 565.948ZM149.406 568.187L428.377 568.187L428.377 558.187L149.406 558.187L149.406 568.187ZM153.268 560.012L4.11591 378.624L-3.6081 384.975L145.544 566.363L153.268 560.012ZM5.25391 381.8V0.707458H-4.74609V381.8H5.25391ZM0.253906 5.70746H695.639V-4.29254H0.253906V5.70746ZM691.777 3.88313L842.392 187.05L850.116 180.698L699.501 -2.46821L691.777 3.88313ZM841.254 183.874V620.147H851.254V183.874H841.254ZM846.254 615.147H466.096V625.147H846.254V615.147Z" fill="#03FDF9" mask="url(#path-1-inside-1_738_802)"/>
</svg>
