<svg width="867" height="584" viewBox="0 0 867 584" fill="none" xmlns="http://www.w3.org/2000/svg">
<mask id="path-1-inside-1_738_823" fill="white">
<path fill-rule="evenodd" clip-rule="evenodd" d="M837.437 187.43V104.42L761.05 0.0351562H0.926758V445.405L102.044 583.584H512.981L554.316 533.764H697.62L751.453 583.584H837.437V478.483L866.392 429.789L866.392 224.667L837.437 187.43Z"/>
</mask>
<path d="M837.437 104.42H842.437V102.786L841.472 101.467L837.437 104.42ZM837.437 187.43H832.437V189.146L833.49 190.5L837.437 187.43ZM761.05 0.0351562L765.085 -2.91759L763.587 -4.96484H761.05V0.0351562ZM0.926758 0.0351562V-4.96484H-4.07324V0.0351562H0.926758ZM0.926758 445.405H-4.07324V447.039L-3.10825 448.358L0.926758 445.405ZM102.044 583.584L98.0086 586.537L99.5067 588.584H102.044V583.584ZM512.981 583.584V588.584H515.33L516.829 586.777L512.981 583.584ZM554.316 533.764V528.764H551.968L550.468 530.571L554.316 533.764ZM697.62 533.764L701.016 530.094L699.579 528.764H697.62V533.764ZM751.453 583.584L748.057 587.254L749.495 588.584H751.453V583.584ZM837.437 583.584V588.584H842.437V583.584H837.437ZM837.437 478.483L833.14 475.927L832.437 477.108V478.483H837.437ZM866.392 429.789L870.689 432.345L871.392 431.163L871.392 429.789L866.392 429.789ZM866.392 224.667L871.392 224.667L871.392 222.952L870.339 221.598L866.392 224.667ZM832.437 104.42V187.43H842.437V104.42H832.437ZM757.015 2.9879L833.402 107.373L841.472 101.467L765.085 -2.91759L757.015 2.9879ZM0.926758 5.03516H761.05V-4.96484H0.926758V5.03516ZM5.92676 445.405V0.0351562H-4.07324V445.405H5.92676ZM106.079 580.631L4.96177 442.452L-3.10825 448.358L98.0086 586.537L106.079 580.631ZM512.981 578.584H102.044V588.584H512.981V578.584ZM550.468 530.571L509.133 580.391L516.829 586.777L558.164 536.956L550.468 530.571ZM697.62 528.764H554.316V538.764H697.62V528.764ZM754.849 579.914L701.016 530.094L694.224 537.433L748.057 587.254L754.849 579.914ZM837.437 578.584H751.453V588.584H837.437V578.584ZM832.437 478.483V583.584H842.437V478.483H832.437ZM841.735 481.038L870.689 432.345L862.094 427.234L833.14 475.927L841.735 481.038ZM871.392 429.789L871.392 224.667L861.392 224.667L861.392 429.789L871.392 429.789ZM870.339 221.598L841.384 184.361L833.49 190.5L862.445 227.736L870.339 221.598Z" fill="#03FDF9" mask="url(#path-1-inside-1_738_823)"/>
</svg>
