<svg width="274" height="270" viewBox="0 0 274 270" fill="none" xmlns="http://www.w3.org/2000/svg">
<path opacity="0.7" fill-rule="evenodd" clip-rule="evenodd" d="M178.483 262.158C183.117 260.602 187.643 258.811 192.046 256.797L181.99 239.381C179.147 240.626 176.247 241.765 173.294 242.791L178.483 262.158ZM150.7 248.244C147.704 248.665 144.673 248.975 141.611 249.17V269.205C146.447 268.941 151.218 268.432 155.911 267.69L150.7 248.244ZM212.301 245.411C216.366 242.658 220.279 239.698 224.024 236.545L209.821 222.342C207.382 224.336 204.863 226.236 202.27 228.037L212.301 245.411ZM240.505 220.166C243.688 216.433 246.678 212.531 249.46 208.474L232.077 198.438C230.253 201.027 228.328 203.54 226.31 205.971L240.505 220.166ZM39.5735 232.936C42.8877 235.954 46.3473 238.815 49.9406 241.507L60.0249 224.041C57.8676 222.356 55.7694 220.6 53.7338 218.775L39.5735 232.936ZM22.6267 174.66C21.6796 172.338 20.803 169.979 19.9997 167.587L0.643937 172.773C1.97179 176.848 3.48137 180.841 5.16316 184.742L22.6267 174.66ZM33.4605 195.234L16.1128 205.25C18.4888 208.928 21.0324 212.487 23.7328 215.917L37.9923 201.657C36.414 199.568 34.9023 197.426 33.4605 195.234ZM69.6382 253.86C73.712 255.965 77.9022 257.876 82.1968 259.581L87.4156 240.104C84.7789 238.998 82.1901 237.799 79.6531 236.514L69.6382 253.86ZM104.445 266.322C109.01 267.298 113.658 268.051 118.376 268.57V248.427C115.426 248.047 112.509 247.56 109.631 246.97L104.445 266.322ZM273.695 137.704H253.654C253.44 140.812 253.108 143.888 252.662 146.927L272.095 152.135C272.87 147.4 273.408 142.585 273.695 137.704ZM243.564 178.241C244.841 175.379 246.01 172.458 247.065 169.483L266.441 174.674C264.85 179.328 263.021 183.871 260.968 188.289L243.564 178.241ZM253.03 114.468L273.162 114.468C272.657 109.686 271.912 104.975 270.938 100.348L251.583 105.534C252.174 108.475 252.658 111.454 253.03 114.468ZM244.8 83.2969L264.268 78.0803C262.55 73.7134 260.62 69.4536 258.489 65.3138L241.141 75.3295C242.454 77.9324 243.675 80.5897 244.8 83.2969ZM237.461 35.0481C240.53 38.4183 243.436 41.9388 246.169 45.5973L228.706 55.6793C226.979 53.4588 225.176 51.3005 223.3 49.2084L237.461 35.0481ZM209.585 11.465C213.33 13.876 216.953 16.4605 220.442 19.2074L206.182 33.4669C204.034 31.8432 201.828 30.2902 199.57 28.8111L209.585 11.465ZM188.921 0.489249C188.967 0.508811 189.013 0.528403 189.059 0.548026L188.921 0.785575V0.489249Z" fill="#03FDF9"/>
</svg>
