<svg width="116" height="136" viewBox="0 0 116 136" fill="none" xmlns="http://www.w3.org/2000/svg">
<path d="M2.06445 103.598C2.06445 102.723 2.36133 101.988 2.95508 101.395C3.58008 100.77 4.33008 100.457 5.20508 100.457H32.4863C33.3613 100.457 34.1113 100.754 34.7363 101.348C35.3301 101.973 35.627 102.723 35.627 103.598C35.627 104.473 35.3145 105.223 34.6895 105.848C34.0957 106.441 33.3613 106.738 32.4863 106.738H22.0332V125.723C21.8457 127.598 20.8145 128.613 18.9395 128.77C18.0645 128.77 17.2988 128.488 16.6426 127.926C16.0176 127.332 15.7051 126.598 15.7051 125.723V106.738H5.20508C4.33008 106.738 3.5957 106.426 3.00195 105.801C2.37695 105.207 2.06445 104.473 2.06445 103.598ZM65.7207 100.457C67.3145 100.488 68.7363 100.988 69.9863 101.957C71.2363 102.926 72.2363 104.082 72.9863 105.426C73.7676 106.77 74.3457 108.191 74.7207 109.691C75.0957 111.191 75.2832 112.723 75.2832 114.285C75.2832 116.348 74.9551 118.379 74.2988 120.379C73.6738 122.348 72.627 124.098 71.1582 125.629C69.7207 127.16 67.9082 127.988 65.7207 128.113H49.3613C47.1738 128.02 45.3457 127.207 43.877 125.676C42.4082 124.145 41.3613 122.379 40.7363 120.379C40.1426 118.379 39.8457 116.348 39.8457 114.285C39.8457 112.223 40.1582 110.207 40.7832 108.238C41.4082 106.238 42.4395 104.473 43.877 102.941C45.3457 101.379 47.1738 100.551 49.3613 100.457H50.252H64.8301H65.7207ZM64.127 121.832C65.3145 121.77 66.2988 121.332 67.0801 120.52C67.8926 119.676 68.4707 118.707 68.8145 117.613C69.1582 116.52 69.3301 115.41 69.3301 114.285C69.3301 113.16 69.1426 112.066 68.7676 111.004C68.4238 109.91 67.8613 108.941 67.0801 108.098C66.2988 107.254 65.3145 106.801 64.127 106.738H50.8145C49.627 106.801 48.6426 107.254 47.8613 108.098C47.0801 108.941 46.502 109.91 46.127 111.004C45.7832 112.066 45.6113 113.16 45.6113 114.285C45.6113 115.41 45.7832 116.52 46.127 117.613C46.4707 118.707 47.0332 119.676 47.8145 120.52C48.627 121.332 49.627 121.77 50.8145 121.832H64.127ZM86.7207 125.629C86.5332 127.504 85.502 128.52 83.627 128.676C82.752 128.676 81.9863 128.395 81.3301 127.832C80.7051 127.238 80.3926 126.504 80.3926 125.629V103.504C80.4238 102.629 80.752 101.91 81.377 101.348C82.002 100.754 82.752 100.457 83.627 100.457H103.314C106.064 100.551 108.143 101.16 109.549 102.285C110.955 103.379 111.971 104.629 112.596 106.035C113.221 107.441 113.533 108.863 113.533 110.301C113.533 111.801 113.221 113.254 112.596 114.66C112.002 116.066 110.986 117.332 109.549 118.457C108.143 119.551 106.346 120.082 104.158 120.051H92.3457C91.4707 120.051 90.7363 119.738 90.1426 119.113C89.5176 118.52 89.2051 117.785 89.2051 116.91C89.2051 116.035 89.502 115.301 90.0957 114.707C90.7207 114.082 91.4707 113.77 92.3457 113.77H104.439C105.033 113.77 105.518 113.582 105.893 113.207C106.299 112.801 106.596 112.348 106.783 111.848C106.971 111.316 107.064 110.785 107.064 110.254C107.064 109.754 106.971 109.254 106.783 108.754C106.596 108.223 106.299 107.77 105.893 107.395C105.518 106.988 105.033 106.77 104.439 106.738H87.9395C87.127 106.77 86.7207 107.176 86.7207 107.957V125.629Z" fill="black"/>
<path d="M29.3059 61.5798C25.1403 57.4142 18.3866 57.4142 14.221 61.5798C10.0554 65.7454 10.0554 72.4992 14.221 76.6648C18.3866 80.8303 25.1403 80.8303 29.3059 76.6648C33.4715 72.4992 33.4715 65.7454 29.3059 61.5798ZM58.0692 29.9881L20.3492 67.7081L23.1777 70.5365L60.8976 32.8166L58.0692 29.9881Z" fill="black"/>
<path d="M102.864 76.5803C106.984 72.3692 106.91 65.6159 102.698 61.4963C98.4874 57.3767 91.734 57.4508 87.6144 61.6619C83.4948 65.873 83.569 72.6263 87.78 76.7459C91.9911 80.8655 98.7445 80.7914 102.864 76.5803ZM96.6379 67.6914L58.0807 29.9717L55.2835 32.831L93.8407 70.5507L96.6379 67.6914Z" fill="black"/>
<path d="M59.4834 1.54297L21.7635 39.2629" stroke="black" stroke-width="4"/>
<path d="M95.2393 39.2617L56.6821 1.54199" stroke="black" stroke-width="4"/>
</svg>
