<svg width="117" height="136" viewBox="0 0 117 136" fill="none" xmlns="http://www.w3.org/2000/svg">
<path d="M2.5625 103.598C2.5625 102.723 2.85938 101.988 3.45312 101.395C4.07812 100.77 4.82812 100.457 5.70312 100.457H32.9844C33.8594 100.457 34.6094 100.754 35.2344 101.348C35.8281 101.973 36.125 102.723 36.125 103.598C36.125 104.473 35.8125 105.223 35.1875 105.848C34.5938 106.441 33.8594 106.738 32.9844 106.738H22.5312V125.723C22.3438 127.598 21.3125 128.613 19.4375 128.77C18.5625 128.77 17.7969 128.488 17.1406 127.926C16.5156 127.332 16.2031 126.598 16.2031 125.723V106.738H5.70312C4.82812 106.738 4.09375 106.426 3.5 105.801C2.875 105.207 2.5625 104.473 2.5625 103.598ZM66.2188 100.457C67.8125 100.488 69.2344 100.988 70.4844 101.957C71.7344 102.926 72.7344 104.082 73.4844 105.426C74.2656 106.77 74.8438 108.191 75.2188 109.691C75.5938 111.191 75.7812 112.723 75.7812 114.285C75.7812 116.348 75.4531 118.379 74.7969 120.379C74.1719 122.348 73.125 124.098 71.6562 125.629C70.2188 127.16 68.4062 127.988 66.2188 128.113H49.8594C47.6719 128.02 45.8438 127.207 44.375 125.676C42.9062 124.145 41.8594 122.379 41.2344 120.379C40.6406 118.379 40.3438 116.348 40.3438 114.285C40.3438 112.223 40.6562 110.207 41.2812 108.238C41.9062 106.238 42.9375 104.473 44.375 102.941C45.8438 101.379 47.6719 100.551 49.8594 100.457H50.75H65.3281H66.2188ZM64.625 121.832C65.8125 121.77 66.7969 121.332 67.5781 120.52C68.3906 119.676 68.9688 118.707 69.3125 117.613C69.6562 116.52 69.8281 115.41 69.8281 114.285C69.8281 113.16 69.6406 112.066 69.2656 111.004C68.9219 109.91 68.3594 108.941 67.5781 108.098C66.7969 107.254 65.8125 106.801 64.625 106.738H51.3125C50.125 106.801 49.1406 107.254 48.3594 108.098C47.5781 108.941 47 109.91 46.625 111.004C46.2812 112.066 46.1094 113.16 46.1094 114.285C46.1094 115.41 46.2812 116.52 46.625 117.613C46.9688 118.707 47.5312 119.676 48.3125 120.52C49.125 121.332 50.125 121.77 51.3125 121.832H64.625ZM87.2188 125.629C87.0312 127.504 86 128.52 84.125 128.676C83.25 128.676 82.4844 128.395 81.8281 127.832C81.2031 127.238 80.8906 126.504 80.8906 125.629V103.504C80.9219 102.629 81.25 101.91 81.875 101.348C82.5 100.754 83.25 100.457 84.125 100.457H103.812C106.562 100.551 108.641 101.16 110.047 102.285C111.453 103.379 112.469 104.629 113.094 106.035C113.719 107.441 114.031 108.863 114.031 110.301C114.031 111.801 113.719 113.254 113.094 114.66C112.5 116.066 111.484 117.332 110.047 118.457C108.641 119.551 106.844 120.082 104.656 120.051H92.8438C91.9688 120.051 91.2344 119.738 90.6406 119.113C90.0156 118.52 89.7031 117.785 89.7031 116.91C89.7031 116.035 90 115.301 90.5938 114.707C91.2188 114.082 91.9688 113.77 92.8438 113.77H104.938C105.531 113.77 106.016 113.582 106.391 113.207C106.797 112.801 107.094 112.348 107.281 111.848C107.469 111.316 107.562 110.785 107.562 110.254C107.562 109.754 107.469 109.254 107.281 108.754C107.094 108.223 106.797 107.77 106.391 107.395C106.016 106.988 105.531 106.77 104.938 106.738H88.4375C87.625 106.77 87.2188 107.176 87.2188 107.957V125.629Z" fill="#E7FC00"/>
<path d="M29.804 61.5798C25.6384 57.4142 18.8846 57.4142 14.719 61.5798C10.5534 65.7454 10.5534 72.4992 14.719 76.6648C18.8846 80.8303 25.6384 80.8303 29.804 76.6648C33.9696 72.4992 33.9696 65.7454 29.804 61.5798ZM58.5672 29.9881L20.8473 67.7081L23.6757 70.5365L61.3957 32.8166L58.5672 29.9881Z" fill="#E7FC00"/>
<path d="M29.804 61.5798C25.6384 57.4142 18.8846 57.4142 14.719 61.5798C10.5534 65.7454 10.5534 72.4992 14.719 76.6648C18.8846 80.8303 25.6384 80.8303 29.804 76.6648C33.9696 72.4992 33.9696 65.7454 29.804 61.5798ZM58.5672 29.9881L20.8473 67.7081L23.6757 70.5365L61.3957 32.8166L58.5672 29.9881Z" fill="black" fill-opacity="0.2"/>
<path d="M103.362 76.5803C107.482 72.3692 107.408 65.6159 103.197 61.4963C98.9854 57.3767 92.2321 57.4508 88.1125 61.6619C83.9929 65.873 84.067 72.6263 88.2781 76.7459C92.4892 80.8655 99.2425 80.7914 103.362 76.5803ZM97.1359 67.6914L58.5787 29.9717L55.7815 32.831L94.3387 70.5507L97.1359 67.6914Z" fill="#E7FC00"/>
<path d="M103.362 76.5803C107.482 72.3692 107.408 65.6159 103.197 61.4963C98.9854 57.3767 92.2321 57.4508 88.1125 61.6619C83.9929 65.873 84.067 72.6263 88.2781 76.7459C92.4892 80.8655 99.2425 80.7914 103.362 76.5803ZM97.1359 67.6914L58.5787 29.9717L55.7815 32.831L94.3387 70.5507L97.1359 67.6914Z" fill="black" fill-opacity="0.2"/>
<path d="M59.9814 1.54297L22.2615 39.2629" stroke="#E7FC00" stroke-width="4"/>
<path d="M95.7373 39.2617L57.1801 1.54199" stroke="#E7FC00" stroke-width="4"/>
</svg>
